<svg xmlns="http://www.w3.org/2000/svg" xmlns:xlink="http://www.w3.org/1999/xlink" version="1.1" x="0px" y="0px"
    viewBox="0 0 100 125" style="enable-background:new 0 0 100 100;" xml:space="preserve"
    fill="#3b3b3b">
    <g>
        <g>
            <path
                d="M78.5,83.1H21.5c-2.5,0-4.6-2.1-4.6-4.6V21.5c0-2.5,2.1-4.6,4.6-4.6s4.6,2.1,4.6,4.6V74h52.5c2.5,0,4.6,2.1,4.6,4.6    C83.1,81.1,81.1,83.1,78.5,83.1z M21.5,19.8c-0.9,0-1.7,0.8-1.7,1.7v57.1c0,0.9,0.8,1.7,1.7,1.7h57.1c0.9,0,1.7-0.8,1.7-1.7    c0-0.9-0.8-1.7-1.7-1.7h-54c-0.8,0-1.4-0.6-1.4-1.4v-54C23.1,20.5,22.4,19.8,21.5,19.8z" />
        </g>
        <g>
            <g>
                <path
                    d="M68.6,72.6c-2.4,0-4.4-2-4.4-4.4V47.1c0-2.4,2-4.4,4.4-4.4c2.4,0,4.4,2,4.4,4.4v21.2C73,70.6,71,72.6,68.6,72.6z      M68.6,45.6c-0.8,0-1.5,0.7-1.5,1.5v21.2c0,0.8,0.7,1.5,1.5,1.5c0.8,0,1.5-0.7,1.5-1.5V47.1C70.1,46.2,69.4,45.6,68.6,45.6z" />
            </g>
            <g>
                <path
                    d="M57.3,72.6c-2.4,0-4.4-2-4.4-4.4V32.3c0-2.4,2-4.4,4.4-4.4c2.4,0,4.4,2,4.4,4.4v35.9C61.7,70.6,59.7,72.6,57.3,72.6z      M57.3,30.8c-0.8,0-1.5,0.7-1.5,1.5v35.9c0,0.8,0.7,1.5,1.5,1.5c0.8,0,1.5-0.7,1.5-1.5V32.3C58.8,31.5,58.1,30.8,57.3,30.8z" />
            </g>
            <g>
                <path
                    d="M46,72.6c-2.4,0-4.4-2-4.4-4.4V50.8c0-2.4,2-4.4,4.4-4.4c2.4,0,4.4,2,4.4,4.4v17.4C50.4,70.6,48.4,72.6,46,72.6z      M46,49.3c-0.8,0-1.5,0.7-1.5,1.5v17.4c0,0.8,0.7,1.5,1.5,1.5c0.8,0,1.5-0.7,1.5-1.5V50.8C47.5,50,46.8,49.3,46,49.3z" />
            </g>
            <g>
                <path
                    d="M34.7,72.6c-2.4,0-4.4-2-4.4-4.4V30.4c0-2.4,2-4.4,4.4-4.4c2.4,0,4.4,2,4.4,4.4v37.8C39.1,70.6,37.1,72.6,34.7,72.6z      M34.7,28.9c-0.8,0-1.5,0.7-1.5,1.5v37.8c0,0.8,0.7,1.5,1.5,1.5c0.8,0,1.5-0.7,1.5-1.5V30.4C36.2,29.6,35.5,28.9,34.7,28.9z" />
            </g>
            <g>
                <path
                    d="M71.5,35.7c-0.4,0-0.8-0.2-1.1-0.5L58.4,22.4l-11.6,6.4c-0.5,0.3-1.1,0.2-1.6-0.1l-10.7-8.2c-0.6-0.5-0.8-1.4-0.3-2     c0.5-0.6,1.4-0.8,2-0.3l9.9,7.6l11.8-6.5c0.6-0.3,1.3-0.2,1.7,0.3l12.9,13.7c0.5,0.6,0.5,1.5-0.1,2     C72.3,35.6,71.9,35.7,71.5,35.7z" />
            </g>
        </g>
    </g><text x="0" y="115" fill="#000000" font-size="5px" font-weight="bold"
        font-family="'Helvetica Neue', Helvetica, Arial-Unicode, Arial, Sans-serif"></text><text
        x="0" y="120" fill="#3b3b3b" font-size="5px" font-weight="bold"
        font-family="'Helvetica Neue', Helvetica, Arial-Unicode, Arial, Sans-serif"></text>
</svg>