<svg xmlns="http://www.w3.org/2000/svg" xmlns:xlink="http://www.w3.org/1999/xlink" version="1.1" x="0px" y="0px"
    viewBox="0 0 100 125" style="enable-background:new 0 0 100 100;" xml:space="preserve"
    fill='#3b3b3b'>
    <path
        d="M14.6616211,68.8706055H39.135437c-0.4772949,6.6413574-5.5584717,9.0698242-6.5136108,9.4658203h-1.4924316  c-2.8007812,0-5.0795898,2.2788086-5.0795898,5.0795898V89c0,0.5522461,0.4477539,1,1,1h45.9003906c0.5522461,0,1-0.4477539,1-1  v-5.5839844c0-2.8007812-2.2788086-5.0795898-5.0795898-5.0795898h-1.4918823  c-0.953186-0.3949585-6.0367432-2.822998-6.5141602-9.4658203h24.4738159C87.9086914,68.8706055,90,66.7792969,90,64.2089844  V14.6616211C90,12.0913086,87.9086914,10,85.3383789,10H14.6616211C12.0913086,10,10,12.0913086,10,14.6616211v49.5473633  C10,66.7792969,12.0913086,68.8706055,14.6616211,68.8706055z M71.9501953,83.4160156V88H28.0498047v-4.5839844  c0-1.6982422,1.3813477-3.0795898,3.0795898-3.0795898h1.6799316c0.0010986,0,0.0020752,0.0004883,0.0031738,0.0004883  c0.0009155,0,0.0018311-0.0004883,0.0027466-0.0004883h36.0553589  C70.5688477,80.3364258,71.9501953,81.7177734,71.9501953,83.4160156z M63.649231,78.3364258H36.350769  c2.0958862-1.7064209,4.4794312-4.6918335,4.7823486-9.4658203h17.7337646  C59.1697998,73.6445923,61.5533447,76.6300049,63.649231,78.3364258z M85.3383789,66.8706055H14.6616211  C13.1938477,66.8706055,12,65.6767578,12,64.2089844V56.234375h76v7.9746094  C88,65.6767578,86.8061523,66.8706055,85.3383789,66.8706055z M14.6616211,12h70.6767578C86.8061523,12,88,13.1938477,88,14.6616211  V54.234375H12V14.6616211C12,13.1938477,13.1938477,12,14.6616211,12z" />
    <path
        d="M49.9204102,33.9233398h0.1591797c1.6054688,0,2.9116211,1.2998047,2.9116211,2.8979492  c0,1.5976562-1.3061523,2.8974609-2.9116211,2.8974609s-2.9116211-1.2998047-2.9116211-2.8974609c0-0.5522461-0.4477539-1-1-1  s-1,0.4477539-1,1c0,2.3006592,1.6044312,4.222168,3.7524414,4.7449341v0.8478394c0,0.5522461,0.4477539,1,1,1s1-0.4477539,1-1  v-0.7800903c2.307373-0.4002686,4.0708008-2.3991089,4.0708008-4.8126831c0-2.7006836-2.203125-4.8979492-4.9116211-4.8979492  h-0.1591797c-1.6054688,0-2.9116211-1.2998047-2.9116211-2.8979492s1.3061523-2.8979492,2.9116211-2.8979492  s2.9116211,1.2998047,2.9116211,2.8979492c0,0.5522461,0.4477539,1,1,1s1-0.4477539,1-1  c0-2.3589478-1.6812744-4.3328247-3.9116211-4.7947998v-0.7984619c0-0.5522461-0.4477539-1-1-1s-1,0.4477539-1,1v0.7984619  c-2.2303467,0.4619751-3.9116211,2.4358521-3.9116211,4.7947998C45.0087891,31.7260742,47.2119141,33.9233398,49.9204102,33.9233398  z" />
    <path
        d="M50,48.3989258c8.3867188,0,15.2099609-6.8232422,15.2099609-15.2099609S58.3867188,17.9790039,50,17.9790039  s-15.2099609,6.8232422-15.2099609,15.2099609S41.6132812,48.3989258,50,48.3989258z M50,19.9790039  c7.2841797,0,13.2099609,5.9257812,13.2099609,13.2099609S57.2841797,46.3989258,50,46.3989258  s-13.2099609-5.9257812-13.2099609-13.2099609S42.7158203,19.9790039,50,19.9790039z" />
    <text x="0" y="115" fill="#000000" font-size="5px" font-weight="bold"
        font-family="'Helvetica Neue', Helvetica, Arial-Unicode, Arial, Sans-serif"></text><text
        x="0" y="120" fill="#000000" font-size="5px" font-weight="bold"
        font-family="'Helvetica Neue', Helvetica, Arial-Unicode, Arial, Sans-serif"></text>
</svg>