<svg xmlns="http://www.w3.org/2000/svg" viewBox="0 0 18.09 13.55" x="0px" y="0px"
fill="#3b3b3b"
>
    <title>Element 25</title>
    <g data-name="Ebene 2">
        <g data-name="Ebene 1">
            <path
                d="M17.51,3.93,7.93.07A1.09,1.09,0,0,0,7.53,0a.9.9,0,0,0-.4.08L3.85,1.41a1,1,0,0,0-.49.41,1,1,0,0,0-.78-.34H1.07A1.07,1.07,0,0,0,0,2.55V8.28A1.07,1.07,0,0,0,1.07,9.35H2.58A1,1,0,0,0,3.36,9a1.15,1.15,0,0,0,.49.41l3.27,1.34a1.15,1.15,0,0,0,.41.08,1.1,1.1,0,0,0,.4-.08L17.49,6.9a.91.91,0,0,0,.56-1,.9.9,0,0,0-.2-.43A.91.91,0,0,0,18.07,5,.92.92,0,0,0,17.51,3.93ZM3,8.28a.46.46,0,0,1-.46.45H1.07a.45.45,0,0,1-.45-.45V2.55a.45.45,0,0,1,.45-.45H2.58A.46.46,0,0,1,3,2.55ZM8.1,4.61a.81.81,0,1,0,0,1.62.79.79,0,0,0,.67-.36A.32.32,0,0,1,9,5.72h8.13a.32.32,0,0,1,.11.61L7.7,10.19a.5.5,0,0,1-.34,0L4.09,8.85a.46.46,0,0,1-.29-.43v-6A.47.47,0,0,1,4.09,2L7.36.65a.5.5,0,0,1,.34,0l9.57,3.86a.31.31,0,0,1-.11.6H9A.29.29,0,0,1,8.77,5,.81.81,0,0,0,8.1,4.61Z" />
        </g>
    </g><text x="0" y="25.84" fill="#3b3b3b" font-size="5px" font-weight="bold"
        font-family="'Helvetica Neue', Helvetica, Arial-Unicode, Arial, Sans-serif">Created by DesignHawk</text><text
        x="0" y="30.84" fill="#3b3b3b" font-size="5px" font-weight="bold"
        font-family="'Helvetica Neue', Helvetica, Arial-Unicode, Arial, Sans-serif">from the Noun Project</text>
</svg>