<svg xmlns="http://www.w3.org/2000/svg" xmlns:xlink="http://www.w3.org/1999/xlink" version="1.1" x="0px" y="0px"
    viewBox="0 0 550 687.5" enable-background="new 0 0 550 550" xml:space="preserve"
    fill='#3b3b3b'
    >
    <g>
        <path
            d="M516.023,42H33.977C20.205,42,9,53.205,9,66.977v323.047C9,403.795,20.205,415,33.977,415H212v73h-39   c-5.523,0-10,4.477-10,10s4.477,10,10,10h39h126h39c5.523,0,10-4.477,10-10s-4.477-10-10-10h-39v-73h178.023   C529.795,415,541,403.795,541,390.023V66.977C541,53.205,529.795,42,516.023,42z M232,488v-72h86v72H232z M33.977,62h482.047   c2.744,0,4.977,2.232,4.977,4.977V304H29V66.977C29,64.232,31.232,62,33.977,62z M516.023,395H33.977   c-2.744,0-4.977-2.232-4.977-4.977V324h492v66.023C521,392.768,518.768,395,516.023,395z" />
        <path
            d="M274.587,335.646c-13.417,0-24.333,10.916-24.333,24.333c0,13.418,10.916,24.334,24.333,24.334   s24.333-10.916,24.333-24.334C298.92,346.561,288.004,335.646,274.587,335.646z M274.587,364.312c-2.39,0-4.333-1.944-4.333-4.334   c0-2.389,1.944-4.333,4.333-4.333s4.333,1.944,4.333,4.333C278.92,362.368,276.977,364.312,274.587,364.312z" />
        <path
            d="M204.377,263.395c1.978,2.3,4.774,3.48,7.586,3.48c2.309,0,4.628-0.795,6.516-2.418c4.188-3.601,4.663-9.915,1.062-14.102   l-54.804-63.73l54.795-63.531c3.607-4.182,3.141-10.497-1.042-14.104c-4.183-3.607-10.497-3.14-14.104,1.042l-60.419,70.053   c-3.233,3.749-3.237,9.298-0.009,13.051L204.377,263.395z" />
        <path
            d="M333.01,264.448c1.89,1.629,4.213,2.428,6.527,2.427c2.808,0,5.6-1.176,7.577-3.469l60.419-70.053   c3.233-3.749,3.237-9.298,0.009-13.051l-60.419-70.26c-3.601-4.188-9.917-4.663-14.102-1.062   c-4.188,3.601-4.663,9.915-1.062,14.102l54.804,63.73l-54.795,63.531C328.361,254.526,328.828,260.84,333.01,264.448z" />
        <path
            d="M245.987,280.706c0.956,0.286,1.921,0.422,2.87,0.422c4.304,0,8.28-2.801,9.577-7.136l50.5-168.812   c1.583-5.292-1.423-10.864-6.714-12.447c-5.292-1.583-10.864,1.424-12.447,6.714l-50.5,168.812   C237.69,273.55,240.696,279.123,245.987,280.706z" />
    </g><text x="0" y="565" fill="#000000" font-size="5px" font-weight="bold"
        font-family="'Helvetica Neue', Helvetica, Arial-Unicode, Arial, Sans-serif"></text><text
        x="0" y="570" fill="#000000" font-size="5px" font-weight="bold"
        font-family="'Helvetica Neue', Helvetica, Arial-Unicode, Arial, Sans-serif"></text>
</svg>