<svg id="Bold" xmlns="http://www.w3.org/2000/svg" width="14" height="16" viewBox="0 0 14 16">
  <defs>
    <style>
      .cls-1 {
        fill: #3b3b3b;
        fill-rule: evenodd;
      }
    </style>
  </defs>
  <path id="Bold-2" data-name="Bold" class="cls-1" d="M4,2A1,1,0,0,0,3,3V17a1,1,0,0,0,1,1h8a5.307,5.307,0,0,0,3.487-1.273,4.2,4.2,0,0,0,0-6.455,4.96,4.96,0,0,0-.907-.629A4.279,4.279,0,0,0,16,6.5a4.293,4.293,0,0,0-1.513-3.227A5.307,5.307,0,0,0,11,2Zm7,7a3.308,3.308,0,0,0,2.17-.778A2.3,2.3,0,0,0,14,6.5a2.3,2.3,0,0,0-.83-1.722A3.308,3.308,0,0,0,11,4H5V9ZM5,11v5h7a3.308,3.308,0,0,0,2.17-.778,2.2,2.2,0,0,0,0-3.445A3.308,3.308,0,0,0,12,11H5Z" transform="translate(-3 -2)"/>
</svg>
