<svg id="Chat" xmlns="http://www.w3.org/2000/svg" width="16.001" height="16.001" viewBox="0 0 16.001 16.001">
  <defs>
    <style>
      .cls-1 {
        fill: #3b3b3b;
        fill-rule: evenodd;
      }
    </style>
  </defs>
  <path id="Chat-2" data-name="Chat" class="cls-1" d="M1.752,1.752A.861.861,0,0,1,2.361,1.5H13.64a.861.861,0,0,1,.861.861v8.056a.861.861,0,0,1-.861.861H3.972a.75.75,0,0,0-.53.22L1.5,13.44V2.361A.861.861,0,0,1,1.752,1.752ZM2.361,0A2.361,2.361,0,0,0,0,2.361v12.89a.75.75,0,0,0,1.28.53l3-3H13.64A2.361,2.361,0,0,0,16,10.417V2.361A2.361,2.361,0,0,0,13.64,0Z"/>
</svg>
