<svg xmlns="http://www.w3.org/2000/svg" width="16" height="16" viewBox="0 0 16 16">
  <path id="Edit"
    d="M15.182,3.5a1.318,1.318,0,0,0-.932.386L13.076,5.059l1.865,1.864,1.173-1.173A1.318,1.318,0,0,0,15.182,3.5Zm-1.3,4.484L12.016,6.12l-7.5,7.5-.7,2.564,2.564-.7Zm.223-5.77a2.818,2.818,0,0,1,3.071,4.6L7.3,16.683a.75.75,0,0,1-.333.193l-4.022,1.1a.75.75,0,0,1-.921-.921l1.1-4.022a.749.749,0,0,1,.193-.333l9.872-9.872A2.819,2.819,0,0,1,14.1,2.215Z"
    transform="translate(-2 -2)" fill="#fafafa" fill-rule="evenodd" />
</svg>