<svg id="Filter" xmlns="http://www.w3.org/2000/svg" width="16" height="14" viewBox="0 0 16 14">
  <path id="Filter-2" data-name="Filter" d="M2.75,13.209a.825.825,0,0,0,0,1.643H8.389a.825.825,0,0,0,0-1.643Zm14.5,1.643H12.361v1.826a.753.753,0,1,1-1.5,0V14.056c0-.009,0-.017,0-.026s0-.017,0-.026V11.383a.753.753,0,1,1,1.5,0v1.826h4.889a.825.825,0,0,1,0,1.643Zm-8-7.883A.788.788,0,0,1,10,6.148h7.25a.825.825,0,0,1,0,1.643H10A.788.788,0,0,1,9.25,6.969Zm-6.5-.822a.825.825,0,0,0,0,1.643H6.027V9.617a.788.788,0,0,0,.75.822.788.788,0,0,0,.75-.822V7q0-.014,0-.028t0-.028V4.322a.788.788,0,0,0-.75-.822.788.788,0,0,0-.75.822V6.148Z" transform="translate(-2 -3.5)" fill="#3b3b3b" fill-rule="evenodd"/>
</svg>
