<svg id="Like" xmlns="http://www.w3.org/2000/svg" width="16" height="14" viewBox="0 0 16 14">
  <defs>
    <style>
      .cls-1 {
        fill: #3b3b3b;
        fill-rule: evenodd;
      }
    </style>
  </defs>
  <path id="Like-2" data-name="Like" class="cls-1" d="M11.685,3.344a4.6,4.6,0,0,1,4.978.98,4.486,4.486,0,0,1,0,6.388l-6.132,6.07a.757.757,0,0,1-1.062,0l-6.132-6.07a4.484,4.484,0,0,1,0-6.388,4.6,4.6,0,0,1,6.459,0l.2.2.2-.2s0,0,0,0A4.57,4.57,0,0,1,11.685,3.344ZM15.6,5.369a3.084,3.084,0,0,0-4.334,0l-.735.728a.757.757,0,0,1-1.062,0l-.735-.728a3.086,3.086,0,0,0-4.334,0,3.018,3.018,0,0,0,0,4.3L10,15.212l5.6-5.545a3.018,3.018,0,0,0,0-4.3Z" transform="translate(-2 -3)"/>
</svg>
