<svg id="Link" xmlns="http://www.w3.org/2000/svg" width="16" height="16" viewBox="0 0 16 16">
  <defs>
    <style>
      .cls-1 {
        fill: #3b3b3b;
        fill-rule: evenodd;
      }
    </style>
  </defs>
  <path id="Link-2" data-name="Link" class="cls-1" d="M13.479,2a4.571,4.571,0,0,0-3.208,1.275l-1.318,1.3a.748.748,0,0,0,0,1.061.755.755,0,0,0,1.065,0L11.321,4.35a3.048,3.048,0,0,1,4.32,4.3l-2.28,2.27a3.062,3.062,0,0,1-4.606-.328.752.752,0,0,0-1.206.9,4.573,4.573,0,0,0,6.878.49l2.285-2.275L16.72,9.7A4.542,4.542,0,0,0,13.479,2ZM9.125,6.7A4.572,4.572,0,0,0,5.574,8.019L3.289,10.294,3.28,10.3A4.552,4.552,0,0,0,9.73,16.725l1.311-1.306a.748.748,0,0,0,0-1.061.755.755,0,0,0-1.065,0l-1.3,1.292a3.048,3.048,0,0,1-4.319-4.3l2.28-2.27a3.062,3.062,0,0,1,4.606.328.752.752,0,0,0,1.206-.9A4.566,4.566,0,0,0,9.125,6.7Z" transform="translate(-2 -2)"/>
</svg>
