<svg id="List" xmlns="http://www.w3.org/2000/svg" width="16" height="11.883" viewBox="0 0 16 11.883">
  <defs>
    <style>
      .cls-1 {
        fill: #3b3b3b;
        fill-rule: evenodd;
      }
    </style>
  </defs>
  <path id="Trazado_25" data-name="Trazado 25" class="cls-1" d="M5.252,4.75A.75.75,0,0,1,6,4H17.25a.75.75,0,0,1,0,1.5H6A.75.75,0,0,1,5.252,4.75Z" transform="translate(-2 -4)"/>
  <path id="Trazado_26" data-name="Trazado 26" class="cls-1" d="M5.252,9.941A.75.75,0,0,1,6,9.191H17.25a.75.75,0,0,1,0,1.5H6A.75.75,0,0,1,5.252,9.941Z" transform="translate(-2 -4)"/>
  <path id="Trazado_27" data-name="Trazado 27" class="cls-1" d="M5.252,15.133a.75.75,0,0,1,.75-.75H17.25a.75.75,0,0,1,0,1.5H6A.75.75,0,0,1,5.252,15.133Z" transform="translate(-2 -4)"/>
  <path id="Trazado_28" data-name="Trazado 28" class="cls-1" d="M2,4.75A.75.75,0,0,1,2.75,4h.008a.75.75,0,1,1,0,1.5H2.75A.75.75,0,0,1,2,4.75Z" transform="translate(-2 -4)"/>
  <path id="Trazado_29" data-name="Trazado 29" class="cls-1" d="M2,9.941a.75.75,0,0,1,.75-.75h.008a.75.75,0,0,1,0,1.5H2.75A.75.75,0,0,1,2,9.941Z" transform="translate(-2 -4)"/>
  <path id="Trazado_30" data-name="Trazado 30" class="cls-1" d="M2,15.133a.75.75,0,0,1,.75-.75h.008a.75.75,0,1,1,0,1.5H2.75A.75.75,0,0,1,2,15.133Z" transform="translate(-2 -4)"/>
</svg>
