<svg id="Pantone" xmlns="http://www.w3.org/2000/svg" width="16" height="16" viewBox="0 0 16 16">
  <defs>
    <style>
      .cls-1 {
        fill: #3b3b3b;
        fill-rule: evenodd;
      }
    </style>
  </defs>
  <path id="Pantone-2" data-name="Pantone" class="cls-1" d="M3.972,2A1.974,1.974,0,0,0,2,3.972V15.426A2.576,2.576,0,0,0,4.574,18H16.028A1.974,1.974,0,0,0,18,16.028V13.893a1.974,1.974,0,0,0-1.972-1.972h-.911l1.13-.653a1.975,1.975,0,0,0,.722-2.694L15.9,6.725A1.975,1.975,0,0,0,13.46,5.88a1.976,1.976,0,0,0-.845-2.441L10.766,2.372a1.972,1.972,0,0,0-2.694.722l-.114.2A1.975,1.975,0,0,0,6.107,2ZM3.54,3.972a.433.433,0,0,1,.432-.432H6.107a.433.433,0,0,1,.432.432V16.46H4.574A1.035,1.035,0,0,1,3.54,15.426ZM8.079,6.161l1.326-2.3A.432.432,0,0,1,10,3.706l1.848,1.067A.434.434,0,0,1,12,5.364l-3.924,6.8Zm5.9,1.176a.433.433,0,0,1,.591.158l1.067,1.848a.433.433,0,0,1-.158.591l-6.5,3.753,3-5.2Zm-5.9,8.646,4.369-2.523h3.579a.433.433,0,0,1,.432.432v2.134a.433.433,0,0,1-.432.432H8.079Zm-3.03-1.8a.77.77,0,1,0,.77.77A.77.77,0,0,0,5.049,14.18Z" transform="translate(-2 -2)"/>
</svg>
