<svg id="Smile" xmlns="http://www.w3.org/2000/svg" width="16" height="16" viewBox="0 0 16 16">
  <defs>
    <style>
      .cls-1 {
        fill: #3b3b3b;
        fill-rule: evenodd;
      }
    </style>
  </defs>
  <path id="Smile-2" data-name="Smile" class="cls-1" d="M10,2a8,8,0,1,0,8,8A8,8,0,0,0,10,2Zm0,14.333A6.333,6.333,0,1,1,16.334,10,6.333,6.333,0,0,1,10,16.333Zm-.833-8A1.366,1.366,0,0,1,7.918,9.792,1.366,1.366,0,0,1,6.667,8.333a1.366,1.366,0,0,1,1.25-1.458A1.366,1.366,0,0,1,9.167,8.333Zm2.917,1.458a1.366,1.366,0,0,0,1.25-1.458,1.366,1.366,0,0,0-1.25-1.458,1.367,1.367,0,0,0-1.25,1.458A1.367,1.367,0,0,0,12.083,9.792Zm.694,1.588a.63.63,0,0,1,.84-.267.621.621,0,0,1,.275.832A4.212,4.212,0,0,1,10,13.958a4.219,4.219,0,0,1-3.893-2.012.625.625,0,0,1,1.116-.565A3.019,3.019,0,0,0,10,12.708,3.012,3.012,0,0,0,12.778,11.38Z" transform="translate(-2 -2)"/>
</svg>
