<svg id="Tag" xmlns="http://www.w3.org/2000/svg" width="16.004" height="16" viewBox="0 0 16.004 16">
  <path id="Tag-2" data-name="Tag" d="M2,2.75A.75.75,0,0,1,2.75,2h7.565a.75.75,0,0,1,.53.22l6.5,6.5,0,0a2.263,2.263,0,0,1,0,3.193L11.92,17.336a2.263,2.263,0,0,1-3.2,0l-6.5-6.491A.75.75,0,0,1,2,10.315Zm14.283,8.1a.763.763,0,0,0,0-1.075L10,3.5H3.5V10l6.279,6.271a.763.763,0,0,0,1.08,0Zm-6.5-3.9a1,1,0,0,1,1.414,0l2.828,2.828a1,1,0,0,1,0,1.414l-2.828,2.828a1,1,0,0,1-1.414,0L6.95,11.192a1,1,0,0,1,0-1.414ZM6.533,5.783a.75.75,0,0,0,0,1.5h.008a.75.75,0,0,0,0-1.5Z" transform="translate(-2 -2)" fill="#3b3b3b" fill-rule="evenodd"/>
</svg>
