<svg xmlns="http://www.w3.org/2000/svg" xmlns:xlink="http://www.w3.org/1999/xlink" version="1.1" x="0px" y="0px" viewBox="0 0 1024 1280" style="enable-background:new 0 0 1024 1024;" xml:space="preserve"><g><g><g><path d="M913.9,297.1c0,7.5,0,15,0,22.6c0,20.1,0,40.2,0,60.2c0,28.5,0,57,0,85.5c0,33.1,0,66.2,0,99.3     c0,33.8,0,67.5,0,101.3c0,30.7,0,61.3,0,92c0,23.3,0,46.6,0,69.9c0,12.2,0,24.4,0,36.6c0,0.9,0,1.7,0,2.6c0,0.1,0,0.1,0,0.2     c0,0,0,0,0,0c0,0.7-0.1,1.4-0.1,2.1c0.2,2.9,1.1-5.3,0.4-2.5c-0.3,1.3-0.6,2.6-1,3.9c-0.2,0.6-0.6,1.3-0.6,1.9     c0,0,2.5-4.9,1.2-2.9c-0.7,1.1-1.3,2.3-1.9,3.5c-0.5,0.9-2.4,3.3,0.1,0.2c2.5-3.2,0.5-0.6-0.2,0c-0.9,0.9-2,1.8-2.8,2.7     c-1.5,1.7,2.4-1.8,2.5-1.9c-0.5,0.1-1.2,0.8-1.6,1.1c-1.1,0.6-2.4,1.2-3.5,1.9c-2,1.3,2.9-1.2,2.9-1.2c-0.8,0.1-1.7,0.6-2.6,0.8     c-1.3,0.4-2.7,0.5-4,0.9c0.5-0.2,6.5-0.4,2.5-0.5c0,0-1.4,0-1.4,0c0,0-0.1,0-0.1,0c-0.6,0-1.1,0-1.7,0c-8.9,0-17.9,0-26.8,0     c-18.2,0-36.5,0-54.7,0c-25.3,0-50.5,0-75.8,0c-30.3,0-60.5,0-90.8,0c-33.4,0-66.7,0-100.1,0c-34.1,0-68.1,0-102.2,0     c-32.8,0-65.7,0-98.5,0c-29.5,0-59.1,0-88.6,0c-24.2,0-48.3,0-72.5,0c-16.8,0-33.5,0-50.3,0c-7.1,0-14.3,0.1-21.4,0     c-0.1,0-0.2,0-0.4,0c-0.7,0-1.4-0.1-2.1-0.1c-2.5,0.1,3.3,0.5,3.2,0.5c-0.6-0.2-1.4-0.2-2-0.4c-1.3-0.3-2.6-0.8-3.9-1.1     c-2.4-0.6,2.9,1.3,2.9,1.3c-0.6-0.5-1.7-0.8-2.4-1.2c-1.1-0.6-2.2-1.7-3.3-2.1c3.9,1.3,3.7,3.2,2,1.4c-0.5-0.5-1-0.9-1.4-1.4     c-0.7-0.7-3.7-4.3-1.1-0.9c2.6,3.4-0.4-0.9-1-1.9c-0.3-0.6-0.6-1.2-0.9-1.8c-1.3-2,1.2,2.9,1.2,2.9c-0.2-1.3-0.9-2.6-1.2-3.9     c-0.2-0.7-0.2-1.3-0.4-2c-0.6-2.4,0.4,3.3,0.4,3.2c0.2-0.5-0.1-2.4-0.1-2.8c0-2.1,0-4.2,0-6.3c0-14.5,0-29.1,0-43.6     c0-24.9,0-49.8,0-74.7c0-31.4,0-62.7,0-94.1c0-33.9,0-67.9,0-101.8c0-32.6,0-65.2,0-97.7c0-27.4,0-54.8,0-82.3     c0-18.1,0-36.1,0-54.2c0-4.4,0-8.7,0-13.1c0-0.8,0-1.6,0-2.3c0,0,0-0.1,0-0.1c0-0.7,0.1-1.4,0.1-2.1c-0.1-2.5-0.5,3.3-0.5,3.2     c0.3-1,0.4-2.3,0.7-3.3c0.3-1.1,2-5.4,0.3-1.4c-1.7,4,0.3-0.3,0.8-1.2c0.5-0.9,3.3-4.7,0.6-1.3c-2.7,3.4,0.7-0.6,1.5-1.4     c0.5-0.4,1-0.8,1.5-1.3c1.5-1.7-2.4,1.8-2.5,1.9c1.2-0.3,2.9-1.8,3.9-2.4c0.5-0.3,1.3-0.5,1.8-0.9c0,0-5.2,1.8-2.9,1.3     c1.5-0.4,3-0.9,4.5-1.2c4.1-1-5.5,0.1-1.2,0.2c0.3,0,1.1,0,1.4,0c0,0,0.1,0,0.1,0c0.6,0,1.2,0,1.8,0c3.3,0,6.6,0,9.8,0     c14,0,28.1,0,42.1,0c22.1,0,44.2,0,66.3,0c28.1,0,56.2,0,84.3,0c32,0,64.1,0,96.1,0c34.1,0,68.1,0,102.2,0c33.7,0,67.4,0,101.1,0     c31.4,0,62.8,0,94.2,0c27,0,54,0,81,0c20.6,0,41.3,0,61.9,0c12,0,24,0,36,0c2.1,0,4.2,0,6.3,0c0.1,0,0.2,0,0.4,0     c0.2,0,0.4,0,0.7,0c0.6,0,1.5,0.2,2.1,0.1c0.1,0-5.7-1.1-3.2-0.4c1.5,0.4,3.1,0.8,4.6,1.1c4,0.9-4.5-2.6-1.1-0.5     c1.1,0.7,2.3,1.4,3.4,2c3.5,2-3.7-3.6-0.9-0.7c0.9,0.9,1.8,1.9,2.8,2.8c2.9,2.8-2.7-4.4-0.7-0.9c0.7,1.3,1.5,2.8,2.3,4     c1.3,2-1.2-2.9-1.2-2.9c0.1,0.6,0.5,1.3,0.6,1.9c0.4,1.3,0.6,2.6,1,3.9c0.6,2.4-0.4-3.3-0.4-3.2     C913.6,294.8,913.9,296.8,913.9,297.1c0.3,13.1,11.3,25.6,25,25c13.3-0.6,25.3-11,25-25c-0.7-33-27-59.5-60.1-60     c-1.8,0-3.5,0-5.3,0c-11.5,0-23,0-34.5,0c-20.4,0-40.9,0-61.3,0c-27,0-54.1,0-81.1,0c-31.7,0-63.5,0-95.2,0     c-34.2,0-68.3,0-102.5,0c-34.2,0-68.5,0-102.7,0c-32.5,0-65,0-97.5,0c-28.3,0-56.6,0-84.9,0c-22.2,0-44.4,0-66.6,0     c-13.8,0-27.6,0-41.4,0c-3.1,0-6.1,0-9.2,0c-16.1,0.1-31.1,5.7-42.9,16.7c-12.5,11.6-18.5,28.3-18.6,45c0,4,0,8.1,0,12.1     c0,17.7,0,35.5,0,53.2c0,27.4,0,54.9,0,82.3c0,33,0,65.9,0,98.9c0,34.3,0,68.5,0,102.8c0,31.8,0,63.6,0,95.4c0,25,0,50,0,75     c0,14.4,0,28.7,0,43.1c0,2.8-0.1,5.6,0.1,8.4c2.3,31.9,27.8,56.7,60,57.2c6.5,0.1,12.9,0,19.4,0c16.4,0,32.8,0,49.3,0     c24.1,0,48.1,0,72.2,0c29.8,0,59.6,0,89.4,0c33.1,0,66.2,0,99.3,0c34.6,0,69.1,0,103.7,0c33.7,0,67.4,0,101.1,0     c30.5,0,61,0,91.6,0c25.5,0,51,0,76.4,0c18.1,0,36.1,0,54.2,0c8.6,0,17.3,0,25.9,0c16.6-0.1,33.2-6.3,44.6-18.6     c11.2-12,16.7-27.1,16.7-43.4c0-11.7,0-23.4,0-35c0-23.3,0-46.6,0-69.9c0-30.7,0-61.3,0-92c0-34.2,0-68.5,0-102.7     c0-33.6,0-67.2,0-100.8c0-28.7,0-57.4,0-86.2c0-20.1,0-40.1,0-60.2c0-7.2,0-14.4,0-21.5c0-13.1-11.5-25.6-25-25     C925.3,272.8,913.9,283.1,913.9,297.1z"/></g></g><g><g><path d="M562.7,446.5c0,15.1,0,30.3,0,45.4c0,17.7-0.7,35.6,0,53.3c0,0.3-0.1,0.7,0,1     c-1.3-7.6,8.3-16.5,15.5-15.5c-1.2-0.2-2.5,0-3.7,0c-7.1,0-14.3,0-21.4,0c-22.3,0-44.6,0-66.9,0c-9.2,0-18.5,0-27.7,0     c-4,0-8.6-0.6-12.6,0c7.2-1,16.8,7.9,15.5,15.5c0.1-0.3,0-0.7,0-1c0.1-2.4,0-4.8,0-7.2c0-9.6,0-19.2,0-28.8c0-19.6,0-39.2,0-58.8     c0-0.2,0-4,0-4c0.9,0-2.5,8.5-2.1,7.8c-1.3,2.2-3.4,4.3-5.6,5.6c0.2-0.1-7.4,3.1-7.8,2.1c0,0.1,1.1,0,1.2,0     c5.8,0.3,11.6,0,17.4,0c21.6,0,43.2,0,64.8,0c15.8,0,31.8,0.7,47.6,0c0.2,0,1.1,0.1,1.2,0c0.1-0.1-3.9-0.5-4-0.6     C567.1,459.9,563.1,453.2,562.7,446.5c0.9,13,10.9,25.6,25,25c12.8-0.6,25.9-11,25-25c-1.3-19.1-14.8-33.9-34.5-34.5     c-1.2,0-2.5,0-3.7,0c-7.5,0-15.1,0-22.6,0c-23.9,0-47.7,0-71.6,0c-9,0-17.9,0-26.9,0c-11.5,0-22.5,1-31.5,9.7     c-9.9,9.5-10.5,21.4-10.5,33.9c0,10.6,0,21.2,0,31.8c0,19.3-0.3,38.5,0,57.8c0.4,20.1,15.4,35.1,35.5,35.5c6.1,0.1,12.2,0,18.3,0     c23.3,0,46.5,0,69.8,0c14.4,0,28.8,0.6,43.2,0c19.2-0.7,33.7-15.3,34.5-34.5c0.1-1.5,0-2.9,0-4.4c0-9,0-18,0-26.9     c0-21.4,0-42.8,0-64.2c0-1.4,0-2.8,0-4.2c0-13.1-11.5-25.6-25-25C574.1,422.1,562.7,432.5,562.7,446.5z"/></g></g><g><g><path d="M913.9,294c0,13,0,26.1,0,39.1c0,13.7,0.6,27.5-0.2,41.2c-0.1,1.6-0.2,3.2-0.4,4.8     c-0.1,0.9-0.2,1.8-0.3,2.7c-0.2,2.8,0.5-3.6,0.5-3.2c-0.8,3.3-1.1,6.7-1.9,10.1c-1.5,6.4-3.5,12.5-5.8,18.6     c-1.5,3.9,2.7-5.7,0.2-0.5c-0.7,1.4-1.3,2.8-2,4.2c-1.5,3-3.1,5.9-4.8,8.7c-1.5,2.4-3,4.8-4.7,7.2c-1,1.4-2.1,2.8-3.1,4.3     c-0.2,0.2,3.7-4.4,1.9-2.5c-0.7,0.8-1.4,1.7-2.1,2.5c-4,4.7-8.3,9.1-12.9,13.1c-1.2,1-2.3,2-3.5,3c-4.4,3.7,3.8-2.7,0.4-0.3     c-2.7,1.9-5.4,3.8-8.1,5.6c-5.5,3.5-11.4,5.8-16.9,9c-0.3,0.2,5.4-2.2,2.9-1.2c-0.8,0.3-1.7,0.7-2.5,1c-1.5,0.6-2.9,1.1-4.4,1.6     c-3.2,1.1-6.4,2-9.7,2.9c-2.9,0.7-5.7,1.3-8.6,1.9c-0.9,0.2-6.8,1-2.1,0.4c4.7-0.6-1.7,0.1-2.9,0.2c-3.6,0.3-7.2,0.4-10.8,0.4     c-2.3,0-4.5,0-6.8,0c-11.7,0-23.3,0-35,0c-36.3,0-72.7,0-109,0c-24.1,0-48.4-0.6-72.5,0c-0.4,0-0.8,0-1.2,0     c8.3,8.3,16.7,16.7,25,25c0-8.4,0-16.8,0-25.1c0-9.9,1.4-21.6-1.2-31.3c-4.1-15.1-18-24.9-33.3-25.3c-1.4,0-2.8,0-4.2,0     c-7.6,0-15.3,0-22.9,0c-23.4,0-46.9,0-70.3,0c-8.8,0-17.7,0-26.5,0c-9,0-17.5-0.1-25.8,4.7c-11.4,6.7-17.1,19-17.1,31.8     c0,5,0,10.1,0,15.1c0,10,0,20,0,30.1c8.3-8.3,16.7-16.7,25-25c-41.1,0-82.2,0-123.3,0c-25.9,0-51.9,0-77.8,0     c-6.8,0-13.7,0-20.5,0c-1,0-2.1,0-3.1,0c-4.7,0-9.3-0.4-13.9-0.8c-4.1-0.4,2.3,0.3,2.6,0.4c-1.3-0.3-2.7-0.4-4.1-0.7     c-2.7-0.5-5.3-1-8-1.7c-4.8-1.2-9.5-2.6-14.1-4.4c-1.2-0.5-2.5-1-3.7-1.5c7.2,2.4,2.8,1.2,1.1,0.4c-2.4-1.1-4.8-2.3-7.1-3.6     c-4.3-2.3-8.4-4.9-12.3-7.6c-1.9-1.3-7-6.3-1.3-0.8c-1.9-1.8-4.1-3.3-6-5.1c-3.6-3.2-7-6.7-10.2-10.3c-1.4-1.6-2.7-3.5-4.2-5     c5,5.1,1.9,2.5,0.7,0.9c-1-1.4-2-2.9-3-4.3c-2.6-3.8-4.9-7.8-7.1-11.9c-1.1-2.2-2.1-4.4-3.2-6.6c-2.2-4.5,2.2,5.8,0.4,1.1     c-0.5-1.2-1-2.5-1.4-3.7c-1.7-4.6-3.1-9.4-4.2-14.2c-0.5-2.2-1-4.4-1.4-6.7c-0.2-1.3-0.4-2.7-0.7-4.1c1.7,8.1,0.3,1.9,0.1-0.2     c-0.4-4.8-0.5-9.6-0.5-14.4c0-12.5,0-24.9,0-37.4c0-10.7-0.1-21.4,0-32c0-0.2,0-0.4,0-0.6c0,0.3,0.1-3,0.1-2.8     c0.9,4.1-0.9,5.3-0.1,2c0.2-0.9,0.9-2.2,0.9-3.2c-0.5,1.2-1,2.4-1.5,3.5c0.4-0.8,0.7-1.6,1.2-2.3c0.6-1,1.7-2.2,2.1-3.3     c-0.7,2.1-3.8,4.3-0.6,1.1c2.2-2.2,3.7-1.5-1.1,0.6c1.1-0.5,2.2-1.5,3.3-2.1c0.7-0.4,1.7-0.7,2.3-1.2c-4.7,3.3-3.9,1.5-1,0.8     c2.8-0.7,4.8,0.3-1.4,0c0.9,0.1,1.9-0.1,2.7-0.1c0,0,0.1,0,0.1,0c4.9-0.1,9.8,0,14.6,0c31.3,0,62.6,0,93.9,0     c50.5,0,100.9,0,151.4,0c59.2,0,118.3,0,177.5,0c56.2,0,112.5,0,168.7,0c43,0,85.9,0,128.9,0c18.2,0,36.5-0.3,54.7,0     c0.1,0,0.2,0,0.2,0c-0.3,0,3.1,0,2.7,0.1c-1.3-0.2-2.6-0.4-4-0.5c0.9,0.2,1.7,0.3,2.6,0.6c0.7,0.2,1.9,0.8,2.5,0.8     c-1.2-0.5-2.4-1-3.5-1.5c0.8,0.4,1.6,0.7,2.3,1.2c1,0.6,2.2,1.7,3.3,2.1c-0.5-0.2-4.6-4.2-2.1-1.5c0.7,0.8,1.8,2.2,2.7,2.8     c-0.8-1-1.5-2-2.3-3c0.5,0.7,1,1.4,1.4,2.2c0.5,0.7,0.8,1.5,1.3,2.3c2.4,4.1-1.6-5.8-0.6-1.1c0.2,1.1,0.5,2.8,0.9,3.9     c-0.2-1.3-0.4-2.6-0.5-4C913.8,292.2,913.9,293.1,913.9,294c0.3,13.1,11.3,25.6,25,25c13.3-0.6,25.3-11,25-25     c-0.7-31.3-25.5-56.3-56.9-56.9c-1.3,0-2.5,0-3.8,0c-8.8,0-17.5,0-26.3,0c-37.7,0-75.5,0-113.2,0c-55.1,0-110.2,0-165.3,0     c-60.5,0-121,0-181.5,0c-54.4,0-108.8,0-163.2,0c-36.7,0-73.3,0-110,0c-8,0-16.1,0-24.1,0c-5.8,0-11.6,0.5-17.2,1.9     c-25.4,6.7-42.1,30.4-42.2,56.2c-0.1,23.4,0,46.9,0,70.3c0,42.6,17.4,84.5,49.2,113.2c28.8,26,65.5,39.9,104.3,39.9     c18.2,0,36.5,0,54.7,0c52.5,0,105,0,157.5,0c3.5,0,7,0,10.4,0c13.5,0,25-11.5,25-25c0-7.5,0-15.1,0-22.6c0-5.4,0-10.9,0-16.3     c0-2.6,0.4-5.6,0-8.2c0.3,2-1,5.6-2.1,7.7c-1.1,2.1-3.4,4.3-5.6,5.6c0.7-0.4-7.9,3-7.9,2.1c0,0,0.8,0,0.8,0c1.8,0.2,3.8,0,5.6,0     c7.8,0,15.5,0,23.3,0c21.8,0,43.7,0,65.5,0c8.8,0,17.5,0,26.3,0c3.4,0,7.4,0.6,10.8,0c-5,0.9-11.1-3.7-13.4-7.7     c-0.7-1.1-2.6-6.7-2.1-7.6c-0.4,0.8,0,3.1,0,3.9c0,5.3,0,10.7,0,16c0,9,0,18.1,0,27.1c0,13.5,11.5,25,25,25c20.9,0,41.7,0,62.6,0     c37.4,0,74.8,0,112.3,0c25,0,50.5,1.4,75.2-2.3c58.6-8.8,108.5-56.5,121.9-113.8c4.2-18,4.2-35.9,4.2-54.2c0-17,0-34,0-50.9     c0-1.2,0-2.3,0-3.5c0-13.1-11.5-25.6-25-25C925.3,269.6,913.9,280,913.9,294z"/></g></g><g><g><path d="M659.1,237.1c-33.3,0-66.6,0-99.9,0c-52.6,0-105.3,0-157.9,0c-12.1,0-24.2,0-36.3,0     c8.3,8.3,16.7,16.7,25,25c0-35.9,0-71.8,0-107.7c0-1.9,0-3.7,0-5.6c0-0.1,0-0.2,0-0.3c0,0.4,0.1-1.9,0.1-2.1c0-3.2-1.8,6.4-0.1,2     c0.2-0.6,0.8-2,0.8-2.5c-0.1,4.2-2.3,4.5-0.9,2.4c0.5-0.8,3-4,0.2-0.7c-3,3.4,0.4-0.2,1-0.9c0.6-0.7,3.1-2.9,0-0.1     c-3.2,2.9-0.1,0.4,0.7-0.2c2.2-1.4,1.8,0.8-2.4,0.9c0.5,0,2-0.6,2.5-0.8c4.4-1.7-5.2,0.2-2,0.1c0.1,0,2.5-0.1,2.1-0.1     c0.1,0,0.1,0,0.2,0c0.9,0,1.9,0,2.8,0c13.5,0,27,0,40.4,0c46.1,0,92.1,0,138.2,0c16.5,0,33,0,49.5,0c3,0,5.9-0.1,8.9,0     c0,0,0.1,0,0.1,0c0.3,0,1.1,0,1.4,0c4.7,0-4.6-1.6-2-0.2c0.6,0.3,2.6,1,3.2,0.9c-0.6,0-5.5-3-2.4-0.9c0.3,0.2,1.8,1.3,2.2,1.4     c-3.1-2.5-3.9-3.2-2.5-1.9c0.5,0.4,1,0.9,1.4,1.3c0.5,0.5,1.2,1.5,1.7,1.9c-3.6-2.6-2.9-3.9-1.3-1.3c1.7,2.9-0.5,2.2-0.6-1.8     c0,0.5,0.6,2.1,0.8,2.5c1.6,4.1-0.8-2.9-0.2-2.7c0.2,0,0.1,2.4,0.1,2.8c0,0.1,0,0.2,0,0.3c0.7,36.5,0,73.2,0,109.7     c0,1.2,0,2.3,0,3.5c0,13.1,11.5,25.6,25,25c13.5-0.6,25-11,25-25c0-36.6,0-73.1,0-109.7c0-15.2-4.3-29.6-15.3-40.6     c-10.3-10.3-24.2-15.2-38.7-15.3c-13.1,0-26.1,0-39.2,0c-47.4,0-94.9,0-142.3,0c-16.4,0-32.9,0-49.3,0c-2.5,0-5-0.1-7.4,0     c-28.7,0.6-51.3,23.3-52,52c-0.8,36.5,0,73.1,0,109.7c0,1.3,0,2.6,0,3.9c0,13.5,11.5,25,25,25c33.3,0,66.6,0,99.9,0     c52.6,0,105.3,0,157.9,0c12.1,0,24.2,0,36.3,0c13.1,0,25.6-11.5,25-25C683.5,248.6,673.1,237.1,659.1,237.1z"/></g></g></g></svg>