<?xml version="1.0" standalone="no"?>
<!DOCTYPE svg PUBLIC "-//W3C//DTD SVG 20010904//EN"
 "http://www.w3.org/TR/2001/REC-SVG-20010904/DTD/svg10.dtd">
<svg version="1.0" xmlns="http://www.w3.org/2000/svg"
 width="425.000000pt" height="238.000000pt" viewBox="0 0 425.000000 238.000000"
 preserveAspectRatio="xMidYMid meet">

<g transform="translate(0.000000,238.000000) scale(0.100000,-0.100000)"
fill="#24345F" stroke="none">
<path d="M1180 2335 l0 -45 210 0 210 0 0 -105 0 -105 435 0 435 0 0 105 0
105 205 0 205 0 0 45 0 45 -850 0 -850 0 0 -45z"/>

<path d="M1623 1986 c-27 -24 -28 -27 -27 -119 2 -142 34 -227 123 -321 91
-95 188 -136 325 -136 136 0 248 53 332 157 59 72 85 147 91 265 7 109 -4 149
-43 167 -17 7 -142 11 -399 11 l-374 0 -28 -24z"/>

<path fill="#24345F" d="M1881 1299 c-226 -29 -472 -134 -651 -276 -83 -66 -89 -51 55 -140
277 -171 530 -416 704 -682 l55 -85 15 24 c211 321 484 578 809 761 l83 46
-53 48 c-252 229 -660 350 -1017 304z"/>

<path  fill="#DB255D" d="M743 983 c4 -54 7 -115 7 -135 l0 -36 98 -32 c372 -123 730 -325
1014 -574 48 -42 90 -71 93 -66 8 12 -95 145 -197 257 -135 146 -299 289 -452
392 -153 103 -391 228 -530 277 l-39 14 6 -97z"/>

<path  fill="#DB255D" d="M3199 1037 c-304 -137 -562 -319 -799 -563 -131 -135 -285 -328 -274
-345 3 -6 29 11 57 36 328 289 687 505 1034 619 l82 27 5 42 c11 90 12 227 2
227 -6 0 -54 -20 -107 -43z"/>

<path  fill="#DB255D" d="M774 553 c4 -59 8 -109 9 -110 1 -1 66 -6 144 -12 172 -13 311 -40
464 -91 119 -39 282 -116 378 -177 35 -23 57 -31 63 -25 12 12 -146 133 -273
210 -109 65 -280 150 -395 195 -79 31 -281 92 -368 112 l-29 6 7 -108z"/>

<path fill="#DB255D" d="M3178 635 c-189 -52 -417 -151 -603 -260 -92 -54 -318 -217 -343
-248 -28 -34 8 -23 81 24 247 159 528 255 829 281 73 7 136 17 140 22 4 6 8
55 8 109 0 71 -3 97 -12 96 -7 0 -52 -11 -100 -24z"/>
</g>
</svg>
