<svg width="99" height="102" viewBox="0 0 99 102" fill="none" xmlns="http://www.w3.org/2000/svg">
<path d="M49.1372 26.2438C50.4739 25.7269 53.3931 23.6988 54.3769 19.721M45.7154 10.9529C46.8917 9.48256 48.656 4.938 47.1323 1.62314M38.2845 19.1698C37.7356 18.1411 37.5807 16.4443 38.1411 15.1397M86.5532 31.1057H15.0248C11.7111 31.1057 9.02478 33.792 9.02478 37.1057V45.7221C9.02478 49.0358 11.7111 51.7221 15.0248 51.7221H86.5532M86.5532 31.1057C86.5532 31.1057 81.0142 34.6809 80.4375 41.4374M86.5532 31.1057C86.5532 31.1057 85.5035 31.7832 84.2705 33.1057C82.6711 34.8212 80.7631 37.6221 80.4375 41.4374M80.4375 41.4374C79.8608 48.1939 86.5532 51.7221 86.5532 51.7221M80.4375 41.4374C80.1131 45.2385 82.0894 48.0179 83.8803 49.7221C85.2728 51.0471 86.5532 51.7221 86.5532 51.7221M81.4205 77.7603H9.89209C6.57838 77.7603 3.89209 80.4466 3.89209 83.7603V92.3767C3.89209 95.6904 6.57839 98.3767 9.8921 98.3767H81.4205M81.4205 77.7603C81.4205 77.7603 76.3968 80.9012 75.5625 87.9373M81.4205 77.7603C81.4205 77.7603 80.3915 78.4037 79.1875 79.7603C77.7313 81.4012 76.0192 84.0857 75.5625 87.9373M75.5625 87.9373C74.7281 94.9735 81.4205 98.3767 81.4205 98.3767M75.5625 87.9373C75.0956 91.8746 76.9855 94.6743 78.7408 96.3767C80.1224 97.7166 81.4205 98.3767 81.4205 98.3767M82.4857 79.4531C82.4855 79.4532 82.4859 79.453 82.4857 79.4531ZM82.4857 79.4531C82.4846 79.4538 82.4835 79.4545 82.4824 79.4551M82.4857 79.4531C82.4872 79.4521 82.4893 79.4508 82.4908 79.4498C83.2403 78.975 83.5878 78.0626 83.3429 77.2088C83.0969 76.3513 82.3126 75.7603 81.4205 75.7603H9.89209C5.47381 75.7603 1.89209 79.3421 1.89209 83.7603V92.3767C1.89209 96.795 5.47382 100.377 9.8921 100.377H81.4205C82.3455 100.377 83.1498 99.7424 83.3654 98.8428C83.5803 97.946 83.1541 97.0188 82.3343 96.5977M82.4857 79.4531L82.475 79.4603C82.4555 79.4733 82.4191 79.4981 82.3681 79.5346C82.266 79.6078 82.1059 79.7279 81.9048 79.8958C81.5017 80.2326 80.9408 80.7565 80.3531 81.4757C79.1819 82.9091 77.9122 85.1065 77.5486 88.1729C77.2196 90.9473 78.3488 93.0057 79.6603 94.4522C80.3203 95.1802 81.0087 95.7293 81.5328 96.0952C81.793 96.2769 82.0071 96.4096 82.1494 96.4934C82.2204 96.5351 82.2729 96.5645 82.3037 96.5813C82.3191 96.5897 82.3291 96.595 82.3331 96.5971L82.332 96.5965L82.3298 96.5954M82.4857 79.4531L82.4836 79.4544L82.4824 79.4551M82.4824 79.4551C82.4823 79.4552 82.4824 79.4551 82.4824 79.4551ZM82.3285 96.5947C82.3305 96.5957 82.3324 96.5967 82.3343 96.5977M82.3343 96.5977C82.3353 96.5982 82.3351 96.5981 82.3343 96.5977ZM22.1372 59.6205H68.7591M22.1372 64.7414H47.5868M8.45002 82.9477H55.0719M8.45001 88.0687H33.8996M14.4382 36.4527H53.5749M16.1457 59.5776C16.1457 56.2639 18.832 53.5776 22.1457 53.5776H95.9463C96.9972 53.5776 97.5396 55.3296 96.7876 56.0637C94.9074 57.8989 92.9279 60.7536 92.9279 64.6383C92.9279 68.648 95.0368 71.6208 96.9687 73.5028C97.7128 74.2276 97.1819 75.9049 96.1431 75.9049H22.1457C18.832 75.9049 16.1457 73.2186 16.1457 69.9049V59.5776ZM58.1729 17.4596C58.1729 23.2249 53.8957 29.9865 45.3412 29.9865C36.7867 29.9865 32.5095 23.2249 32.5095 17.4596C32.5095 11.244 36.5601 9.895 40.9506 10.0261C42.7526 10.0799 45.3412 11.4518 45.3412 11.4518C45.3412 11.4518 47.9298 10.0799 49.7317 10.0261C54.1223 9.895 58.1729 11.1962 58.1729 17.4596ZM45.6725 11.0348C43.036 11.0597 40.6247 9.27159 39.988 4.17065C42.4999 5.14978 46.591 4.69103 45.6725 11.0348ZM87.6417 32.7835C87.6408 32.7841 87.6399 32.7847 87.639 32.7852L87.6197 32.7985C87.5942 32.8159 87.5502 32.8465 87.4903 32.8901C87.3702 32.9774 87.1869 33.1162 86.9599 33.3056C86.5042 33.6858 85.8825 34.2611 85.2445 35.0225C83.964 36.5504 82.6735 38.7572 82.4302 41.6075C82.2062 44.2327 83.3737 46.274 84.7456 47.7536C85.4291 48.4906 86.1345 49.0535 86.6695 49.4311C86.9352 49.6185 87.1538 49.7567 87.2995 49.8446C87.3722 49.8884 87.4264 49.9195 87.4586 49.9376C87.4747 49.9467 87.4853 49.9525 87.49 49.9551L87.4884 49.9542L87.4872 49.9536C87.4889 49.9545 87.4905 49.9553 87.4921 49.9562C88.3014 50.3865 88.7149 51.3122 88.4946 52.2025C88.2737 53.0951 87.4727 53.7221 86.5532 53.7221H15.0248C10.6065 53.7221 7.02478 50.1404 7.02478 45.7221V37.1057C7.02478 32.6874 10.6065 29.1057 15.0248 29.1057H86.5532C87.44 29.1057 88.2209 29.6897 88.4716 30.5403C88.7215 31.3885 88.3848 32.2999 87.6442 32.7819C87.6433 32.7824 87.6425 32.783 87.6417 32.7835ZM72.234 42.6798V31.4194C72.234 30.8671 71.7863 30.4194 71.234 30.4194H64.9472C64.3949 30.4194 63.9472 30.8671 63.9472 31.4194V42.6798C63.9472 43.5707 65.0243 44.0168 65.6543 43.3869L67.3835 41.6577C67.774 41.2672 68.4072 41.2672 68.7977 41.6577L70.5269 43.3869C71.1569 44.0168 72.234 43.5707 72.234 42.6798Z" stroke="black" stroke-width="2" stroke-linecap="round" stroke-linejoin="round"/>
</svg>
