<svg id="Avatar_40px_6" data-name="Avatar / 40px / #6" xmlns="http://www.w3.org/2000/svg" width="40" height="40" viewBox="0 0 40 40">
  <path id="Trazado_1017" data-name="Trazado 1017" d="M0,18.133C0,11.15,0,7.658,1.572,5.093A10.667,10.667,0,0,1,5.093,1.572C7.658,0,11.15,0,18.133,0h3.733c6.983,0,10.475,0,13.04,1.572a10.668,10.668,0,0,1,3.521,3.522C40,7.658,40,11.15,40,18.133v3.733c0,6.983,0,10.475-1.572,13.04a10.669,10.669,0,0,1-3.521,3.521C32.342,40,28.85,40,21.867,40H18.133c-6.983,0-10.475,0-13.04-1.572a10.668,10.668,0,0,1-3.522-3.521C0,32.342,0,28.85,0,21.867Z" fill="#22cce2"/>
  <path id="Trazado_1018" data-name="Trazado 1018" d="M27.676,13.674v5.733c0,.083,0,.166,0,.249s0,.134-.008.2-.006.121-.011.181c0,.043-.006.087-.009.13,0,.027,0,.051-.008.077,0,.047-.007.1-.015.143-.007.09-.019.179-.032.27,0,.023-.006.045-.009.068-.006.045-.013.091-.021.136v.006c-.011.066-.022.13-.034.2-.017.09-.034.181-.053.27,0,0,0,.008,0,.012a.3.3,0,0,1-.008.04s0,.007,0,.011c-.009.049-.021.1-.032.143a.371.371,0,0,1-.015.062c-.006.034-.015.068-.023.1a.6.6,0,0,1-.017.058c0,.017-.009.034-.013.049-.04.155-.085.306-.132.456-.023.072-.045.141-.07.213,0,.007-.006.015-.008.023l-.068.192c-.008.019-.015.038-.023.058-.023.06-.045.121-.07.181s-.059.145-.089.217-.055.128-.083.192c0,.011-.009.021-.013.032-.032.068-.062.136-.094.2s-.066.14-.1.209c-.068.138-.141.275-.215.409l-.1.181a11.106,11.106,0,0,1-.963,1.4q-.071.093-.147.181c-.07.085-.141.168-.213.249s-.128.143-.194.213q-.271.291-.554.553c-.038.038-.077.072-.117.107-.064.058-.128.115-.194.17-.051.045-.1.089-.157.132-.136.111-.271.219-.409.319-.056.044-.115.085-.173.125-.094.068-.191.132-.287.194-.053.036-.107.07-.162.1-.192.119-.386.228-.579.322-.047.025-.094.047-.141.07l-.147.068c-.062.028-.125.055-.187.079a.6.6,0,0,1-.073.028c-.074.03-.149.058-.222.083-.092.034-.187.062-.279.089-.064.019-.13.036-.194.051a.026.026,0,0,1-.013,0c-.064.015-.128.03-.192.042a.482.482,0,0,1-.051.01c-.053.009-.106.019-.158.024a2.227,2.227,0,0,1-.226.024.514.514,0,0,1-.077.006c-.06,0-.121.006-.179.006h-.006c-.058,0-.117,0-.175-.006a.4.4,0,0,1-.068-.006c-.053,0-.107-.007-.164-.015a.21.21,0,0,1-.036,0c-.07-.009-.139-.021-.211-.034s-.121-.023-.183-.038a5.428,5.428,0,0,1-.99-.333,7.231,7.231,0,0,1-.865-.456c-.145-.088-.29-.183-.434-.283-.072-.051-.143-.1-.215-.155q-.337-.246-.665-.535c-.06-.055-.121-.109-.181-.166s-.121-.111-.179-.166q-.221-.212-.43-.441c-.055-.059-.109-.119-.164-.181-.151-.17-.3-.345-.437-.528-.055-.066-.106-.134-.156-.2q-.286-.379-.541-.79c-.045-.073-.091-.149-.134-.222s-.1-.179-.155-.27a10.278,10.278,0,0,1-.513-1.056c-.023-.053-.045-.106-.064-.158-.03-.068-.057-.138-.081-.205q-.057-.15-.107-.3c-.034-.1-.066-.2-.1-.3s-.058-.2-.085-.3-.058-.213-.083-.322c0-.011-.006-.023-.008-.034q-.054-.226-.1-.458c-.038-.2-.068-.411-.09-.62-.01-.066-.015-.132-.021-.2s-.013-.138-.017-.207c-.009-.126-.015-.255-.019-.383,0-.083,0-.166,0-.249V13.674A7.675,7.675,0,0,1,19.994,6H20a7.759,7.759,0,0,1,1.7.188,7.677,7.677,0,0,1,5.972,7.418C27.676,13.629,27.676,13.652,27.676,13.674Z" fill="#ffe1b2"/>
  <path id="Trazado_1019" data-name="Trazado 1019" d="M29.952,39.812C27.9,40,25.307,40,21.867,40H18.133c-3.44,0-6.032,0-8.084-.188a9.875,9.875,0,0,1,.485-2.238q.093-.274.2-.543v0c.072-.179.151-.354.234-.528a9.888,9.888,0,0,1,1.218-1.942c.121-.149.243-.294.369-.434.059-.068.121-.133.183-.2l.011-.012c.066-.068.132-.136.2-.2a9.927,9.927,0,0,1,1.08-.931c.19-.141.383-.273.583-.4s.4-.247.611-.36a.012.012,0,0,1,.007,0c.081-.043.16-.09.24-.139a5.983,5.983,0,0,0,.677-.471,6.3,6.3,0,0,0,2.387-4.949l1.457.008,1.5.008a6.3,6.3,0,0,0,2.37,4.935,5.11,5.11,0,0,0,.418.309c.015.011.028.021.044.03.068.045.136.09.207.132s.156.094.236.138a.1.1,0,0,1,.034.017c.166.092.33.188.49.288.077.047.155.1.23.151.157.1.309.209.458.323v0h0c.191.141.375.292.556.447s.354.317.522.485A9.945,9.945,0,0,1,29.952,39.812Z" fill="#f0c290" fill-rule="evenodd"/>
  <path id="Trazado_1020" data-name="Trazado 1020" d="M29.951,39.812C27.9,40,25.306,40,21.867,40H18.133c-3.44,0-6.033,0-8.085-.188a9.879,9.879,0,0,1,.485-2.239q.093-.274.2-.543v0c.072-.179.151-.354.234-.528a9.884,9.884,0,0,1,1.218-1.942c.121-.149.243-.294.37-.433.062-.072.128-.141.194-.211h0c.066-.068.132-.136.2-.2a9.927,9.927,0,0,1,1.08-.931c.191-.141.383-.273.582-.4.1-.066.207-.13.313-.192s.2-.115.3-.17a.006.006,0,0,1,.007,0v0c.081-.045.16-.09.24-.138a5.815,5.815,0,0,0,.673-.475l0,0h0a5.373,5.373,0,0,0,3.844,1.623h.015a5.385,5.385,0,0,0,3.853-1.621l0,0a5.064,5.064,0,0,0,.417.311l.043.03c.062.042.126.081.19.121l.017.011c.077.047.157.092.236.136a.1.1,0,0,1,.023.011l.01.006c.089.049.179.1.266.153s.151.091.224.138.155.1.23.151c.156.1.309.209.458.323h0c.19.143.377.292.556.448s.354.317.522.485A9.946,9.946,0,0,1,29.951,39.812Z" fill="#fe9f5e" fill-rule="evenodd"/>
  <path id="Trazado_1021" data-name="Trazado 1021" d="M27.676,19.407c0,.083,0,.166,0,.249,0,.068,0,.134-.008.2s-.006.121-.011.181c0,.043-.006.087-.009.13,0,.027,0,.051-.008.077,0,.047-.007.1-.015.143-.01.09-.019.181-.032.27,0,.023-.006.045-.009.068-.006.045-.013.091-.021.136-.009.068-.022.136-.034.2s-.03.156-.047.234a.363.363,0,0,1-.01.047c0,.013-.006.026-.008.04s0,.007,0,.011a.1.1,0,0,1,0,.025c-.009.04-.017.079-.028.119a.371.371,0,0,1-.015.062,1.115,1.115,0,0,1-.028.109.233.233,0,0,1-.011.051c0,.017-.009.034-.013.049-.04.155-.085.306-.132.456-.023.072-.045.141-.07.213,0,.007-.006.015-.008.022l-.068.192c-.008.019-.015.038-.023.058-.023.06-.045.121-.07.181s-.059.145-.089.217-.055.128-.083.192c0,.012-.009.021-.013.032-.032.068-.062.136-.094.2s-.066.14-.1.209c-.068.138-.141.275-.215.409l-.1.181a11.091,11.091,0,0,1-.963,1.4q-.071.093-.147.181c-.07.085-.141.168-.213.249s-.128.143-.194.213q-.271.291-.554.552c-.038.038-.077.072-.117.108-.064.058-.128.115-.194.17-.051.045-.1.089-.157.132-.136.111-.271.219-.409.319-.056.043-.115.085-.173.125-.094.068-.191.132-.287.194-.053.036-.107.07-.162.1-.192.119-.386.228-.579.322-.047.025-.094.047-.141.07s-.1.045-.147.068-.125.055-.187.079a.623.623,0,0,1-.073.028c-.074.03-.149.058-.222.083-.092.034-.187.062-.279.089-.064.019-.13.036-.194.051a.026.026,0,0,1-.013,0c-.064.015-.128.03-.192.042a.508.508,0,0,1-.051.009c-.053.009-.106.019-.158.025-.075.011-.151.021-.226.024a.528.528,0,0,1-.077.006c-.06,0-.121.006-.179.006h-.006c-.058,0-.117,0-.175-.006a.409.409,0,0,1-.068-.006c-.053,0-.107-.008-.164-.015a.22.22,0,0,1-.036,0c-.07-.009-.139-.021-.211-.034s-.121-.023-.183-.038a5.429,5.429,0,0,1-.99-.334,7.245,7.245,0,0,1-.865-.456c-.145-.087-.288-.181-.434-.283-.072-.051-.143-.1-.215-.155q-.337-.246-.665-.535c-.06-.055-.121-.109-.181-.166s-.121-.111-.179-.166q-.221-.212-.43-.441c-.055-.059-.109-.119-.164-.181-.151-.17-.3-.345-.437-.528-.055-.066-.106-.134-.156-.2q-.286-.379-.541-.79c-.045-.073-.091-.149-.134-.222s-.1-.179-.155-.27a10.269,10.269,0,0,1-.513-1.056c-.023-.053-.045-.106-.064-.158-.03-.068-.057-.138-.081-.206q-.057-.15-.107-.3c-.034-.1-.066-.2-.1-.3s-.058-.2-.085-.3-.058-.213-.083-.322c0-.011-.006-.023-.008-.034q-.054-.226-.1-.458c-.038-.2-.068-.411-.09-.62-.01-.066-.015-.132-.021-.2s-.013-.138-.017-.207c-.009-.126-.015-.255-.019-.383,0-.083,0-.166,0-.249l1.225,2.409,2.106.918,2.49.224h0l1.846.168H20l1.727.156s0,0,0,0l3.851.347Z" fill="#4e1e30"/>
  <path id="Trazado_1022" data-name="Trazado 1022" d="M20.009,20.618l0,1.857v0l0,.651v.511l0,1.7v0l0,0h0l-.006,0L12.58,21.557c0-.011-.006-.023-.008-.034q-.054-.226-.1-.458c-.038-.2-.068-.411-.09-.62-.009-.066-.015-.132-.021-.2s-.013-.138-.017-.207c-.009-.126-.015-.255-.019-.383,0-.083,0-.166,0-.249V17.155c0,.032,0,.064,0,.1a7.51,7.51,0,0,0,.269,1.757,7.612,7.612,0,0,0,.481,1.3v0a3.076,3.076,0,0,0,1.764,1.838c.038.006.077.01.115.013a6.629,6.629,0,0,0,.737.042,4.905,4.905,0,0,0,2.353-1.086l.011-.006c.028-.017.056-.034.081-.051a.131.131,0,0,1,.023-.013,3.809,3.809,0,0,1,1.832-.424Z" fill="#4e1e30"/>
  <path id="Trazado_1023" data-name="Trazado 1023" d="M27.677,17.154l0,2.253a9.24,9.24,0,0,1-.151,1.657c-.04.215-.085.428-.138.639l-1.74,2.513L20,25.333h0l0,0v0l-.006-4.717h.015a3.823,3.823,0,0,1,1.834.424.122.122,0,0,1,.021.013l.083.051.009.006A4.915,4.915,0,0,0,24.308,22.2a6.629,6.629,0,0,0,.737-.041c.04,0,.077-.007.117-.013A3.073,3.073,0,0,0,26.925,20.3v0a7.617,7.617,0,0,0,.481-1.3,7.421,7.421,0,0,0,.27-1.781C27.677,17.2,27.677,17.178,27.677,17.154Z" fill="#4e1e30"/>
  <path id="Trazado_1024" data-name="Trazado 1024" d="M20,23.637c1.039,0,1.88-.26,1.88-.581s-.842-.581-1.88-.581-1.88.26-1.88.581S18.961,23.637,20,23.637Z" fill="#f0c290"/>
  <path id="Trazado_1025" data-name="Trazado 1025" d="M20,6h-.007a7.675,7.675,0,0,0-7.669,7.674v3.384a7.306,7.306,0,0,1,1.176-3c.931-1.065.7-2.684,2.784-2.684,1.348,0,1.423.5,3.706.5H20c2.283,0,2.358-.5,3.706-.5,2.089,0,1.853,1.619,2.784,2.684a7.309,7.309,0,0,1,1.176,3V13.674A7.675,7.675,0,0,0,20,6Z" fill="#4e1e30"/>
  <path id="Trazado_1026" data-name="Trazado 1026" d="M25.066,32.181l-.207.211a6.812,6.812,0,0,1-9.733,0l-.2-.2c.1-.058.2-.115.3-.17a.006.006,0,0,1,.008,0v0c.081-.045.16-.09.239-.138a5.827,5.827,0,0,0,.673-.475l0,0a5.374,5.374,0,0,0,3.844,1.623h.015a5.385,5.385,0,0,0,3.853-1.621l0,0a5.066,5.066,0,0,0,.417.311l.043.03c.068.045.138.089.207.132s.157.092.236.136a.193.193,0,0,1,.034.017C24.889,32.078,24.979,32.129,25.066,32.181Z" fill="#cc784a"/>
</svg>
