<svg id="Avatar_150px_5" data-name="Avatar / 150px / #5" xmlns="http://www.w3.org/2000/svg" width="150" height="150" viewBox="0 0 150 150">
  <path id="Trazado_877" data-name="Trazado 877" d="M1.441,29.671A29.933,29.933,0,0,1,29.671,1.441C42.458.686,58.591,0,75,0s32.542.686,45.329,1.441a29.933,29.933,0,0,1,28.23,28.231C149.314,42.458,150,58.591,150,75s-.686,32.542-1.441,45.329a29.932,29.932,0,0,1-28.23,28.23C107.542,149.314,91.409,150,75,150s-32.542-.686-45.329-1.441a29.933,29.933,0,0,1-28.231-28.23C.686,107.542,0,91.409,0,75S.686,42.458,1.441,29.671Z" fill="#ffbb5d" fill-rule="evenodd"/>
  <path id="Trazado_878" data-name="Trazado 878" d="M98.272,124.366V107.055H53.759v17.311l22.256,19.783Z" fill="#ffe1b2"/>
  <path id="Trazado_879" data-name="Trazado 879" d="M140.008,139.663a29.978,29.978,0,0,1-19.683,8.9C107.539,149.314,91.406,150,75,150s-32.542-.686-45.329-1.44a30,30,0,0,1-17.919-7.243,9.892,9.892,0,0,1,7.6-8.853l30.6-7.2a4.925,4.925,0,0,0,2.251-1.217L76.015,139.2,100.8,124.746a4.924,4.924,0,0,0,1.285.518l30.6,7.2A9.892,9.892,0,0,1,140.008,139.663Z" fill="#8b63e7" fill-rule="evenodd"/>
  <path id="Trazado_880" data-name="Trazado 880" d="M53.759,107.055v18.264c28.037,10.1,44.512-15.18,44.512-15.18v-3.084Z" fill="#f0c290"/>
  <path id="Trazado_881" data-name="Trazado 881" d="M43.868,50.178l2.155,47.409a14.838,14.838,0,0,0,5.92,11.2l10.225,7.669a14.839,14.839,0,0,0,8.9,2.967h9.892a14.839,14.839,0,0,0,8.9-2.967l10.225-7.669a14.838,14.838,0,0,0,5.919-11.2l2.155-47.409Z" fill="#ffe1b2"/>
  <path id="Trazado_882" data-name="Trazado 882" d="M81.056,149.97Q78.038,150,75,150q-2.016,0-4.024-.014l.405-5.836h9.274Z" fill="#5b5d6e" fill-rule="evenodd"/>
  <path id="Trazado_883" data-name="Trazado 883" d="M82.2,139.2H69.832v4.654a2.765,2.765,0,0,0,2.765,2.765h6.835a2.765,2.765,0,0,0,2.765-2.765V139.2Z" fill="#515262"/>
  <path id="Trazado_884" data-name="Trazado 884" d="M53.411,118.86l22.6,20.343a85.313,85.313,0,0,0-14.142,9.637,3.173,3.173,0,0,1-4.913-1.111L46.34,124.366l3.36-5.039A2.471,2.471,0,0,1,53.411,118.86Z" fill="#fff"/>
  <path id="Trazado_885" data-name="Trazado 885" d="M98.62,118.86,76.016,139.2a85.308,85.308,0,0,1,14.142,9.637,3.173,3.173,0,0,0,4.913-1.111l10.62-23.363-3.36-5.039A2.471,2.471,0,0,0,98.62,118.86Z" fill="#fff"/>
  <path id="Trazado_886" data-name="Trazado 886" d="M91.008,33.8l2.318,16.383c10.583,2.117,12.108,18.725,12.327,23.468a4.88,4.88,0,0,0,.782,2.416l4.038,6.264s-1.382-10.355,4.945-17.311C115.419,65.016,117.592,23.9,91.008,33.8Z" fill="#4e1e30"/>
  <path id="Trazado_887" data-name="Trazado 887" d="M112.954,81.271l-2.792,11.167a2.973,2.973,0,0,1-5.835-.352L102.9,80.664a5.122,5.122,0,0,1,5.083-5.757h0A5.123,5.123,0,0,1,112.954,81.271Z" fill="#ffe1b2"/>
  <path id="Trazado_888" data-name="Trazado 888" d="M46.237,29.364l3.658,2.5C33.357,44.073,36.448,65.016,36.448,65.016c4.946,4.946,4.946,17.311,4.946,17.311l4.946-4.946S44.431,63.093,53.758,57.6c8.655-5.1,16.228-2.473,23.956-2.473,20.71,0,26.507-7.805,25.5-17.31-.52-4.918-8.039-15.163-27.2-14.838C68.281,23.108,53.758,25.449,46.237,29.364Z" fill="#66273f"/>
  <path id="Trazado_889" data-name="Trazado 889" d="M44.794,52.96s-2.627-10.355,5.1-21.1C33.357,44.073,36.448,65.016,36.448,65.016c4.946,4.946,4.946,17.311,4.946,17.311l4.946-4.946S44.431,63.093,53.758,57.6c8.655-5.1,16.229-2.473,23.956-2.473a60.759,60.759,0,0,0,8.918-.612C70.683,55.047,61.28,42.965,44.794,52.96Z" fill="#4e1e30"/>
  <path id="Trazado_890" data-name="Trazado 890" d="M39.079,81.271,41.87,92.438a2.973,2.973,0,0,0,5.835-.352l1.428-11.422a5.122,5.122,0,0,0-5.082-5.757h0A5.122,5.122,0,0,0,39.079,81.271Z" fill="#ffe1b2"/>
</svg>
