<svg id="Capa_1" data-name="Capa 1" xmlns="http://www.w3.org/2000/svg" viewBox="0 0 1242 2079"><defs><style>.cls-1{fill:#fff;}</style></defs><title>Mesa de trabajo 4@72x-9</title><path class="cls-1" d="M125.8,1075.2q0-232.69,0-465.37c0-38,15.58-51.23,59.47-51.22q407.73,0,815.45.2c46,0,61,12.58,61.11,52.24q.36,201.08,0,402.14c0,29.7-13,45.5-38,48.85-30.83,4.12-52-13.88-52.15-46-.45-90.21-.32-180.42-.36-270.63,0-27-1.26-54,.65-80.91,1.47-20.78-5.9-27.26-30.17-27.15-195.25.86-390.5.53-585.75.55-36.37,0-72.81,1.1-109.09-.5-23.48-1-31,5.07-30.89,26.53,1,166.08.62,332.17.63,498.26,0,108.75.49,217.51-.59,326.25-.21,20.55,5.62,27.65,30.1,27.27,81.33-1.29,162.71-.9,244.06-.24,36.4.29,58.49,27.31,45.57,54.36-8.91,18.65-26.43,24.76-48.69,24.68-101.46-.36-202.91,0-304.36-.3-41.2-.11-56.47-13.74-56.54-51.15q-.39-223.85-.12-447.67V1075.2Z"/><path class="cls-1" d="M880.92,1097.43c-9.09,31.23,5.15,50.23,48.48,65.73,85.6,30.62,127.8,93.72,132.32,174.62a1005.84,1005.84,0,0,1-.74,121.29c-6.69,102.88-95.31,180.67-212.24,188.4C739.55,1654.7,632.45,1587.06,616,1489.6c-10.41-61.65-9.61-126.69,0-188.55,11.47-74,68-122.85,148.16-147.32,20.07-6.13,27.12-13.88,26-32-1.51-23.51-.81-47.19.17-70.75,1-25,18.5-41.07,43.57-41.77,26.06-.72,45.23,15.89,46.94,41.71C881.66,1064.4,880.92,1077.92,880.92,1097.43ZM701.41,1396.54h-.23c0,21-1.46,42.15.28,63.07,4.95,59.8,59.63,105,129,107.86,66.28,2.78,129.67-38.52,136.46-96.62A653.92,653.92,0,0,0,967,1320c-6.78-58-69.5-99-136.44-96.87-67.21,2.12-122.54,46.55-128.75,105.33C699.42,1351,701.41,1373.84,701.41,1396.54Z"/><path class="cls-1" d="M593.8,851c-67.82,0-135.65.39-203.47-.16-33.81-.28-53.11-16.73-51.82-41.9,1.21-23.62,20.07-37.35,53.68-37.45,108.9-.3,217.8-.18,326.69-.2,27.71,0,55.42-.4,83.1.32,28.71.74,46.68,15.53,47.62,37.7,1,23.38-17,40.88-46.61,41.26-69.72.91-139.46.29-209.19.29Z"/><path class="cls-1" d="M488.06,1062.86c-33.45,0-66.9.4-100.34-.12-30.31-.47-49-15.65-49.32-38.78s18-40,47.9-40.38q101.74-1.22,203.52-.05c30.62.32,51,18.62,49.77,41.79-1.17,22.27-21,37.21-51.2,37.59-33.44.42-66.89.09-100.33.09Z"/><path class="cls-1" d="M881.3,1342.51l-.81,0c0-9.24.85-18.56-.17-27.71-2.56-23.15-20.37-38.61-43.89-39.09-24.56-.51-44.43,15.8-46,39.69-1.24,19.26-2.05,38.82.36,57.91,2.79,22.09,19.77,34.88,44.76,35,23.81.1,39.24-12.45,43.74-33.12C881.63,1364.55,880.74,1353.41,881.3,1342.51Z"/><path class="cls-1" d="M881.3,1342.51c-.56,10.9.33,22-2,32.64-4.5,20.67-19.93,33.22-43.74,33.12-25-.1-42-12.89-44.76-35-2.41-19.09-1.6-38.65-.36-57.91,1.54-23.89,21.41-40.2,46-39.69,23.52.48,41.33,15.94,43.89,39.09,1,9.15.17,18.47.17,27.71Z"/></svg>