<svg id="Capa_1" data-name="Capa 1" xmlns="http://www.w3.org/2000/svg" viewBox="0 0 1736 1731"><defs><style>.cls-1{fill:#fff;}</style></defs><title>Mesa de trabajo 6@72x-9</title><path class="cls-1" d="M862.43,1390.92c-182.44,0-364.88.35-547.32-.44-22.57-.1-46.79-1.68-67.35-10.58-50.13-21.7-75-65.88-75.89-124.27-1.11-78.1-1.66-156.26.08-234.32,2.87-128.49,87.34-220.07,205.33-222,58.48-1,117,3.42,175.55,4.17,6.25.08,14.88-6.33,18.55-12.47,43.9-73.49,106.71-106.64,185.83-106.47q107.26.24,214.53,0c79.08-.27,141.89,32.61,186.6,105.49,4.42,7.2,17.05,11.62,26,11.79,69.48,1.32,139.72-5.59,208.29,3.31,95.33,12.38,161.89,102.6,164.93,212.52,2.21,80,1.67,160.24.18,240.32-1.37,73.29-45.89,124.47-112.31,131-27.3,2.67-54.92,1.94-82.4,2Q1112.72,1391.08,862.43,1390.92Zm-239-90.76h483.13c0-134.5,1.57-266.64-.62-398.71C1104.68,828,1054.6,776,987.13,774.56q-122.31-2.61-244.7,0c-66.51,1.43-116.88,52-118.3,124C621.51,1031.63,623.38,1164.78,623.38,1300.16ZM539.77,888.05c-55,0-107-.68-159,.16-78.4,1.27-126.37,53.58-127.34,139.3-.82,73-.43,146.11-.08,219.16.19,40.28,14.34,55.44,52.39,55.74,63.22.5,126.43.14,189.65.15h44.35Zm648.93,414.06c85.1,0,166.46,1,247.77-.62,23.31-.46,39.51-16.55,39.57-44.48.18-83,1.54-166.15-1.1-249.1-2-61.38-47.4-113.64-102.87-117.66-54.71-4-109.85-1.82-164.76-.55-6.32.15-17.77,11.82-17.82,18.23C1188.43,1037.93,1188.7,1168,1188.7,1302.11Z"/><path class="cls-1" d="M864.11,661.43c-132.48-.36-241.05-120-240.31-264.76.74-143.92,108.37-261,240.41-261.63,132.66-.58,242.2,118.72,241.71,263.25C1105.44,543.57,996.8,661.8,864.11,661.43Zm160.14-263c.2-94.82-71.1-173.5-158.48-174.87C780,222.18,706.28,301.69,705.5,396.38c-.8,96,72.22,176.38,159.8,176C952.1,571.91,1024.05,493.18,1024.25,398.39Z"/><path class="cls-1" d="M622.66,575.89c.34,108.45-79.89,196.9-179.31,197.67s-179.85-86.63-180.5-196c-.65-108.41,79.33-196.93,179-198.11C539.81,378.34,622.32,468,622.66,575.89Zm-81.81,1.66c.26-60.49-44.43-109.62-99.12-109-53.34.64-98,49.46-98.32,107.55-.36,59.86,44.5,108.55,99.8,108.31C497.38,684.21,540.59,636.9,540.85,577.55Z"/><path class="cls-1" d="M1466.85,575.91c.49,108.94-79.13,196.85-179,197.6-98.79.75-180.47-87.75-180.85-195.94s80-197,179.28-198.14C1384.25,378.26,1466.37,467.64,1466.85,575.91ZM1289.68,684.38c53.28-.91,97.21-50.35,96.61-108.72-.6-59.33-47.67-109-101.51-107.06-55.55,2-97.18,50.78-95.87,112.41C1190.15,639.32,1235,685.32,1289.68,684.38Z"/></svg>