<svg id="Capa_1" data-name="Capa 1" xmlns="http://www.w3.org/2000/svg" viewBox="0 0 1487 2145"><defs><style>.cls-1{fill:#fff;}</style></defs><title>Mesa de trabajo 3@72x-9</title><path class="cls-1" d="M1003.78,852.9c26.6,0,50.64-.34,74.67.07,66.18,1.12,115,49,115.19,115.16.52,213.16.13,426.32.36,639.48,0,19.41-4.8,35.49-24,43.33s-34.1-.29-47.64-14c-39.71-40.21-79.2-80.69-120.18-119.58-8.7-8.27-23.33-14.47-35.27-14.54-172.78-1-345.57-.72-518.36-.78-87.81,0-132.39-44.73-132.45-132.71,0-11.84,0-23.68,0-43-34.63,35-64.42,65-94.22,95.08q-13.65,13.75-27.36,27.45c-12.3,12.21-26.4,19-43.73,12.07-18-7.16-24.91-21.52-24.87-40.32.11-51.67-.14-103.35-.13-155q0-238.6.19-477.19c.08-80.48,45.54-125.9,126.29-125.95q312.47-.18,624.94,0c80.43,0,125.84,45.45,126.52,126.07C1003.92,808.68,1003.78,828.85,1003.78,852.9Zm-801.68,471,7.82,4.61c22.58-23.76,45.67-47.06,67.55-71.44,14.59-16.26,31.26-22.62,53.28-22.54,181.68.65,363.37.41,545.06.33,38.23,0,50.87-12.62,50.89-50.71q.13-197.43,0-394.87c0-38.41-12.46-50.92-50.55-50.94q-308.86-.17-617.73-.18c-44.78,0-56.27,11.29-56.31,55.55q-.17,180.48,0,361Zm801.63-393.67c0,85.08,0,166.57,0,248.07,0,88.68-43.72,132.61-132.17,132.66q-224,.13-448.1,0H393.11c0,22.45,0,41.67,0,60.89.09,41.44,11.69,53.13,53.13,53.14,176.82,0,353.64.68,530.45-.6,30.87-.22,54,7.65,74,31.32,18.79,22.19,40.76,41.69,61.33,62.38,5.72-12.06,5.73-20.75,5.72-29.44q0-82.35-.1-164.71,0-173.18,0-346.37c0-29.11-11.1-45.4-34.37-47C1057.81,928.91,1032.09,930.24,1003.73,930.24Z"/></svg>