<svg id="Capa_1" data-name="Capa 1" xmlns="http://www.w3.org/2000/svg" viewBox="0 0 1553 1997"><defs><style>.cls-1{fill:#fff;}</style></defs><title>Mesa de trabajo 2@72x-9</title><path class="cls-1" d="M295,1175.12c0-84.68-5.81-170,2.52-253.79,4-40.42,25.43-90.34,54.91-114.58,125.27-103,257-197.22,385.22-296.36,32.11-24.83,57.6-23.25,89,.95q190,146.48,382.24,289.74c42.61,31.88,60.56,73.29,60.18,127.76-1.16,167.2-1.42,334.42.22,501.61.54,54.61-17.67,79.73-72.29,78.1-88.88-2.65-177.89-1.8-266.81-.36-45.38.74-63.85-20.59-62.5-66.92,1.32-45.56.5-91.2.18-136.8-.65-93.64-27.84-136.31-87.44-137.87-61.72-1.63-89.87,41.79-90.58,140.46-.31,43.43-1.13,86.91.39,130.28,1.72,48.81-16.79,72-65.49,71-88.91-1.86-177.9-1.54-266.82-.15-44.58.69-64.05-18.77-63.33-66C295.93,1353.2,295,1264.16,295,1175.12Zm656.71,248.49c65.73,0,125.21-1.69,184.54.61,37,1.45,51.19-11.34,50.67-51.79-1.87-145.28.59-290.64-2.55-435.87-.52-23.86-15.2-55.22-33.15-69.54Q986,735.24,815,611.57c-16-11.57-52.44-11.9-68.39-.47C632.35,693,520.21,778.21,409.5,865.32c-17,13.36-32.4,41.69-32.8,63.43-2.82,149.58-2.36,299.27,0,448.87.24,14.55,19.94,40.44,31.74,41.18,65,4.06,130.31,1.94,201.17,1.94,0-54.24-.67-99.4.13-144.52,2.07-116.14,74.42-198.15,172.75-196.67,95.8,1.45,166.68,82.44,169,194.31C952.51,1321.09,951.68,1368.36,951.68,1423.61Z"/></svg>