<svg id="Capa_1" data-name="Capa 1" xmlns="http://www.w3.org/2000/svg" viewBox="0 0 803.23 803.43">
    <title>Sin título-1</title>
    <path
        d="M1058.83,509.57a365.31,365.31,0,0,0-5.4-41c-.88-4.6-1.85-9.2-2.92-13.77h0c-8.48-43.43-25-83.78-47.63-121.59-31.2-52-72.16-94.93-123.34-127.51C773,137.82,657.79,125.72,537.41,156.81c-98.6,25.46-171.34,85.84-221.84,173.57-17.08,29.67-30.81,60.89-39.85,94l0,0c-10.23,29.44-15.65,60-18.07,90.83-2.16,27.52-.76,55.31,3.1,82.8C272,678.08,303.06,749.26,357,809.83,421.16,882,501.51,924.68,596.85,939.56c9.1,1.42,18.58.74,27.31,4.44H690c1.06-2.22,3.14-1.3,4.82-1.53,11.36-1.56,22.71-3.25,34.11-4.51,4.22-.46,5.11-1.8,4.26-6-3.39-16.76-6.59-33.56-9.45-50.42-.83-4.93-2.29-6.18-7.47-5.31A340.93,340.93,0,0,1,615,878.34C537.11,868.12,470.07,836.08,415,779.77a324.65,324.65,0,0,1-67.86-101.94,344.59,344.59,0,0,1-26.84-115.68c-2.48-46.35,4.33-91.47,18.74-135.51h0c1-2.36,2.16-4.69,3.1-7.09,15.13-38.62,35.52-74.07,63.74-104.67,24.21-26.24,51.19-49.05,82.55-66.61,47.79-26.75,99-41.62,153.53-44,62.73-2.73,122.31,9.69,178.07,39.49,61.46,32.84,107.77,80.34,139.94,142,11.89,22.78,20,46.95,27.39,71.41a80,80,0,0,0,1.16,8.5c10.2,42.12,11.44,84.68,5.19,127.38q-14,95.94-76.27,170.65c-11.3,13.56-23.34,26.44-37.26,37.79-2.19-3.31-1.32-6.23-1.33-9-.08-28.74-.13-57.49,0-86.23,0-4.75-.87-6.95-6.43-6.82-16.71.4-33.44.35-50.16,0-5.28-.11-6.58,1.63-6.57,6.68q.21,91.32,0,182.65c0,4.72.74,6.89,6.3,6.87q91.72-.3,183.44-.05c4.43,0,6.52-.65,6.41-5.87-.34-17-.29-34,0-50.95.07-4.79-1.28-6.25-6.15-6.17-17.24.29-34.49.11-51.74.11H938.63c17.73-16.58,30.64-34.47,44.29-51.67,16.58-20.89,28.91-44.53,40-68.68,16.93-36.92,29.11-75.23,32.9-116,.08-.81.65-5.24,1.26-11.3C1058.78,567.94,1061.26,542.07,1058.83,509.57Z"
        transform="translate(-256.62 -140.57)" 
        fill="#fff"/>
    <path
        d="M834.46,538.37c-3.91-2-7.43-4.84-11.13-7.3L698.06,448a36.6,36.6,0,0,0-3-2.46q-62.91-42-125.84-83.86c-1.21-.81-2.31-2.22-4.4-1.46v91.45c-.07,1-.2,2.08-.2,3.12q0,133.62,0,267.24c0,1.14-.59,2.63,1.34,3.54,1.81-1.13,3.8-2.29,5.71-3.56,68.63-45.76,137.15-91.7,206-137.19,18.91-12.5,36.54-26.91,56.52-37.78C839.34,544.18,840.88,541.73,834.46,538.37Zm-76,3.75c-11,6-20.74,13.94-31.16,20.83-37.94,25.07-75.71,50.4-113.55,75.63-1.06.7-2.15,1.34-3.15,2-1.07-.5-.74-1.32-.74-1.95q0-73.67,0-147.33c0-.57.07-1.15.11-1.72V439.12c1.15-.42,1.75.36,2.42.8q34.71,23.1,69.38,46.24a21.12,21.12,0,0,1,1.65,1.35l69.07,45.82c2,1.35,4,2.89,6.13,4C762.19,539.21,761.34,540.55,758.47,542.12Z"
        transform="translate(-256.62 -140.57)" 
        fill="#fff"/>
</svg>