<svg xmlns="http://www.w3.org/2000/svg" data-name="Capa 1" width="744" height="199" style=""><rect id="backgroundrect" width="100%" height="100%" x="0" y="0" fill="none" stroke="none"/><defs><style>.cls-1{fill:#fff;}</style></defs><title>Mesa de trabajo 1 copia 3</title><g class="currentLayer" style=""><title>Layer 1</title><path class="cls-1" d="M222.52999923706054,153.00004516601564 c-0.6900000000000002,1.06 -1.6600000000000001,2.5300000000000002 -2.2,3.25 l0,0 c-0.8500000000000001,1.11 -1.7400000000000002,2.18 -2.6900000000000004,3.21 l-0.07,0.08000000000000002 c-0.38000000000000006,0.41000000000000003 -1,1.06 -1.4100000000000001,1.46 l-0.22000000000000003,0.22000000000000003 c-0.4,0.4 -0.8200000000000001,0.78 -1.24,1.1600000000000001 c-0.24000000000000002,0.23 -0.49000000000000005,0.44000000000000006 -0.7300000000000001,0.6600000000000001 l-0.53,0.45 a46.25,46.25 0 0 1 -23.4,10.4 l-0.8600000000000001,0.11000000000000001 l-1.08,0.11000000000000001 c-0.55,0.06000000000000001 -1.11,0.1 -1.6700000000000002,0.13 c-0.2,0 -0.41000000000000003,0 -0.6100000000000001,0 c-0.6800000000000002,0 -1.35,0.05000000000000001 -2,0.05000000000000001 c-25.16,0 -45.64,-20.19 -45.64,-45 s20.48,-45 45.64,-45 c0.6900000000000002,0 1.36,0 2,0.05000000000000001 l0.6100000000000001,0 c0.56,0 1.12,0.08000000000000002 1.6700000000000002,0.13 l1.08,0.12000000000000001 l0.8600000000000001,0.1 a46.27,46.27 0 0 1 23.4,10.41 l0.52,0.44000000000000006 l0.7500000000000001,0.6600000000000001 c0.41000000000000003,0.38000000000000006 0.8300000000000001,0.77 1.23,1.1600000000000001 l0.23,0.23 c0.42000000000000004,0.43000000000000005 0.8500000000000001,0.8600000000000001 1.26,1.3 l0.21000000000000002,0.23 c0.9400000000000001,1 1.84,2.1 2.68,3.22 l0,0 c0.8600000000000001,1.13 1.6700000000000002,2.31 2.42,3.51 h0 a1.08,1.08 0 0 1 -0.38000000000000006,1.48 l-12.19,7 l-7,4.07 a1.37,1.37 0 0 1 -1.82,-0.42000000000000004 c-4,-6.07 -9.55,-9.44 -16.19,-9.44 a21,21 0 0 0 -16.05,7.42 a19.39,19.39 0 0 0 0,26.47 a21,21 0 0 0 16.05,7.4 c6.640000000000001,0 12.19,-3.36 16.19,-9.43 a1.3800000000000001,1.3800000000000001 0 0 1 1.82,-0.42000000000000004 l18.92,10.93 A1.37,1.37 0 0 1 222.52999923706054,153.00004516601564 z" id="svg_1"/><path class="cls-1" d="M320.72999923706055,87.07004516601563 v83.21 a1.37,1.37 0 0 1 -1.37,1.37 h-24 a1.37,1.37 0 0 1 -1.3800000000000001,-1.37 v-1.27 a0.6900000000000002,0.6900000000000002 0 0 0 -1,-0.5900000000000001 a46,46 0 0 1 -22.65,5.94 c-25.16,0 -45.64,-20.19 -45.64,-45 s20.48,-45 45.64,-45 a45.84,45.84 0 0 1 22.65,5.94 a0.6900000000000002,0.6900000000000002 0 0 0 1,-0.6000000000000001 v-2.6100000000000003 a1.3800000000000001,1.3800000000000001 0 0 1 1.3800000000000001,-1.3800000000000001 h24 A1.37,1.37 0 0 1 320.72999923706055,87.07004516601563 zm-26.77,42.28 c0,-11.39 -8,-20.65 -19.56,-20.65 a20.65,20.65 0 1 0 0,41.29 C285.93999923706053,149.99004516601565 293.9599992370606,140.7300451660156 293.9599992370606,129.3500451660156 z" id="svg_2"/><path class="cls-1" d="M423.52999923706057,59.99004516601565 V170.2800451660156 a1.37,1.37 0 0 1 -1.37,1.37 h-24 a1.37,1.37 0 0 1 -1.3800000000000001,-1.37 v-1.27 a0.6800000000000002,0.6800000000000002 0 0 0 -1,-0.5900000000000001 a46,46 0 0 1 -22.65,5.94 c-25.17,0 -45.65,-20.19 -45.65,-45 s20.48,-45 45.65,-45 a45.9,45.9 0 0 1 22.65,5.94 a0.6800000000000002,0.6800000000000002 0 0 0 1,-0.6000000000000001 V59.99004516601565 a1.37,1.37 0 0 1 1.3800000000000001,-1.37 h24 A1.37,1.37 0 0 1 423.52999923706057,59.99004516601565 zM396.79999923706055,129.3500451660156 c0,-11.39 -8,-20.65 -19.56,-20.65 a20.65,20.65 0 1 0 0,41.29 C388.79999923706055,149.99004516601565 396.79999923706055,140.7300451660156 396.79999923706055,129.3500451660156 z" id="svg_3"/><path class="cls-1" d="M521.5299992370606,129.38004516601563 a50.22,50.22 0 0 1 -0.7400000000000001,8 a1.3800000000000001,1.3800000000000001 0 0 1 -1.36,1.15 h-60.2 a1.3800000000000001,1.3800000000000001 0 0 0 -1.18,2.08 a20.43,20.43 0 0 0 17.64,10.18 a20.21,20.21 0 0 0 16.15,-8 a1.3900000000000001,1.3900000000000001 0 0 1 1.34,-0.53 l23,4.14 a1.3800000000000001,1.3800000000000001 0 0 1 1,1.9500000000000002 c-0.52,1.08 -1.17,2.42 -1.56,3.1 h0 l-0.38000000000000006,0.6300000000000001 c-0.35000000000000003,0.6000000000000001 -0.7200000000000001,1.18 -1.15,1.84 s-1,1.52 -1.52,2.18 l-0.29000000000000004,0.39000000000000007 h0 l-0.5,0.6300000000000001 l-0.25,0.32000000000000006 c-0.32000000000000006,0.4 -0.6300000000000001,0.77 -0.9400000000000001,1.12 l-0.27,0.32000000000000006 c-0.51,0.5800000000000001 -1,1.13 -1.57,1.7000000000000002 l-0.31000000000000005,0.31000000000000005 l-1.1,1.07 l-0.11000000000000001,0.11000000000000001 c-0.4,0.38000000000000006 -0.81,0.7500000000000001 -1.24,1.11 l-0.45,0.39000000000000007 l-0.52,-0.45 l0.44000000000000006,0.51 c-0.6400000000000001,0.55 -1.24,1 -1.85,1.49 l-0.52,0.38000000000000006 c-0.7000000000000001,0.52 -1.4300000000000002,1 -2.17,1.51 l-0.21000000000000002,0.13 c-0.8500000000000001,0.55 -1.71,1.06 -2.5700000000000003,1.54 l-0.25,0.14 l-0.6300000000000001,0.33000000000000007 l-0.14,0.08000000000000002 l-1.12,0.56 l-0.21000000000000002,0.1 c-0.81,0.39000000000000007 -1.57,0.7300000000000001 -2.34,1 l-0.15000000000000002,0.06000000000000001 l-1.44,0.56 l-0.56,0.2 c-0.56,0.2 -1.12,0.39000000000000007 -1.7000000000000002,0.5700000000000001 l-0.1,0 c-0.6100000000000001,0.18000000000000002 -1.26,0.37000000000000005 -2,0.56 l-0.52,0.13 c-1.32,0.32000000000000006 -2.62,0.5900000000000001 -3.93,0.79 l-0.49000000000000005,0.08000000000000002 c-1.3900000000000001,0.2 -2.7600000000000002,0.3400000000000001 -4.12,0.41000000000000003 l-0.51,0 c-0.8200000000000001,0 -1.47,0.05000000000000001 -2.1,0.05000000000000001 s-1.33,0 -2.12,-0.05000000000000001 l-0.47000000000000003,0 h-0.16000000000000003 l-1.54,-0.12000000000000001 l-0.16000000000000003,0 l-0.45,0 c-0.7500000000000001,-0.08000000000000002 -1.4,-0.16000000000000003 -2,-0.25 h-0.06000000000000001 l-0.36000000000000004,-0.06000000000000001 c-0.56,-0.09000000000000002 -1.11,-0.19000000000000003 -1.6600000000000001,-0.30000000000000004 l-0.6000000000000001,-0.12000000000000001 l-1.47,-0.3400000000000001 l-0.15000000000000002,0 l-0.43000000000000005,-0.11000000000000001 c-0.7300000000000001,-0.19000000000000003 -1.36,-0.36000000000000004 -1.9500000000000002,-0.54 s-1.28,-0.42000000000000004 -1.9100000000000001,-0.6400000000000001 l-0.44000000000000006,-0.16000000000000003 l-0.12000000000000001,-0.05000000000000001 c-0.46,-0.17 -0.92,-0.3400000000000001 -1.37,-0.53 l-0.13,-0.05000000000000001 l-0.43000000000000005,-0.17 c-0.6100000000000001,-0.26 -1.21,-0.53 -1.81,-0.81 l-0.06000000000000001,0 c-0.54,-0.25 -1.13,-0.55 -1.7200000000000002,-0.8600000000000001 l-0.4,-0.22000000000000003 l-0.11000000000000001,-0.06000000000000001 c-0.43000000000000005,-0.23 -0.8600000000000001,-0.47000000000000003 -1.27,-0.7200000000000001 l-0.51,-0.30000000000000004 c-0.56,-0.3400000000000001 -1.11,-0.6900000000000002 -1.6600000000000001,-1.05 a45.68,45.68 0 0 1 -13.52,-14 c-0.29000000000000004,-0.46 -0.56,-0.93 -0.8300000000000001,-1.4 l-0.12000000000000001,-0.23 c-0.25,-0.46 -0.5,-0.92 -0.7400000000000001,-1.3900000000000001 l-0.13,-0.25 l-0.22000000000000003,-0.42000000000000004 a45.85,45.85 0 0 1 -2.27,-5.5600000000000005 c-0.36000000000000004,-1.07 -0.6400000000000001,-2 -0.8600000000000001,-2.84 c-0.18000000000000002,-0.7000000000000001 -0.35000000000000003,-1.44 -0.51,-2.17 a45.13,45.13 0 0 1 -0.8700000000000001,-6.76 c0,-0.7600000000000001 -0.05000000000000001,-1.55 -0.05000000000000001,-2.3200000000000003 s0,-1.55 0.05000000000000001,-2.31 a44.54,44.54 0 0 1 2.24,-11.78 c0.42000000000000004,-1.26 0.8400000000000001,-2.38 1.29,-3.43 c0.26,-0.6100000000000001 0.54,-1.2 0.8200000000000001,-1.79 l0.21000000000000002,-0.42000000000000004 l0.17,-0.35000000000000003 c0.07,-0.13 0.13,-0.27 0.21000000000000002,-0.41000000000000003 s0.15000000000000002,-0.28 0.23,-0.42000000000000004 l0.39000000000000007,-0.7300000000000001 c0.32000000000000006,-0.5700000000000001 0.6500000000000001,-1.1400000000000001 1,-1.6900000000000002 a45.68,45.68 0 0 1 13.52,-14 c0.55,-0.36000000000000004 1.1,-0.7100000000000001 1.6600000000000001,-1.05 l0.51,-0.30000000000000004 c0.42000000000000004,-0.25 0.8400000000000001,-0.49000000000000005 1.27,-0.7200000000000001 l0.11000000000000001,-0.06000000000000001 l0.41000000000000003,-0.22000000000000003 q0.8700000000000001,-0.46 1.77,-0.9 c0.6000000000000001,-0.28 1.21,-0.55 1.82,-0.81 l0.42000000000000004,-0.17 l0.13,-0.05000000000000001 c0.45,-0.19000000000000003 0.91,-0.37000000000000005 1.37,-0.54 l0.14,-0.05000000000000001 l0.43000000000000005,-0.16000000000000003 c0.6300000000000001,-0.22000000000000003 1.26,-0.43000000000000005 1.9,-0.6300000000000001 s1.3,-0.38000000000000006 1.9500000000000002,-0.55 l0.43000000000000005,-0.11000000000000001 l0.15000000000000002,0 l1.48,-0.3400000000000001 l0.3400000000000001,-0.07 c0.6000000000000001,-0.12000000000000001 1.57,-0.30000000000000004 2.17,-0.39000000000000007 l0.11000000000000001,0 h0.05000000000000001 c0.6000000000000001,-0.08000000000000002 1.25,-0.17 2,-0.24000000000000002 l0.45,0 l0.16000000000000003,0 c0.52,-0.05000000000000001 1,-0.08000000000000002 1.55,-0.11000000000000001 l0.12000000000000001,0 l0.5,0 c0.79,0 1.48,-0.06000000000000001 2.12,-0.06000000000000001 s1.29,0 2.09,0.06000000000000001 l0.5,0 c1.3800000000000001,0.08000000000000002 2.75,0.22000000000000003 4.09,0.41000000000000003 l0.55,0.08000000000000002 c1.3,0.21000000000000002 2.6100000000000003,0.47000000000000003 3.89,0.79 l0.55,0.14 c0.7300000000000001,0.19000000000000003 1.3800000000000001,0.37000000000000005 2,0.56 l0.1,0 c0.6000000000000001,0.19000000000000003 1.17,0.38000000000000006 1.7200000000000002,0.5800000000000001 l0.52,0.18000000000000002 c0.52,0.2 1,0.37000000000000005 1.42,0.56 l0.23,0.09000000000000002 c0.7400000000000001,0.31000000000000005 1.52,0.6500000000000001 2.31,1 l0.2,0.09000000000000002 l1.1,0.55 l0.12000000000000001,0.06000000000000001 l-0.29000000000000004,0.6200000000000001 l0.36000000000000004,-0.5800000000000001 l0.6300000000000001,0.3400000000000001 c0.78,0.43000000000000005 2,1.18 2.7800000000000002,1.6500000000000001 l0.09000000000000002,0.06000000000000001 c0.8,0.51 1.54,1 2.27,1.56 l0.12000000000000001,0.09000000000000002 l0.44000000000000006,0.33000000000000007 c0.6300000000000001,0.47000000000000003 1.23,1 1.87,1.5 l0.37000000000000005,0.30000000000000004 c0.48000000000000004,0.41000000000000003 0.9500000000000001,0.8300000000000001 1.4,1.26 l0.12000000000000001,0.11000000000000001 c0.37000000000000005,0.35000000000000003 0.7300000000000001,0.7100000000000001 1.08,1.07 l0.28,0.28 c0.5800000000000001,0.5900000000000001 1.1,1.1400000000000001 1.57,1.6900000000000002 l-0.44000000000000006,0.52 l0.52,-0.44000000000000006 l0.23,0.28 c0.31000000000000005,0.36000000000000004 0.6200000000000001,0.7200000000000001 0.92,1.09 l0.28,0.35000000000000003 c0.35000000000000003,0.44000000000000006 0.6900000000000002,0.8800000000000001 1,1.34 l0.05000000000000001,0.06000000000000001 c0.28,0.37000000000000005 0.54,0.7400000000000001 0.79,1.11 l0.49000000000000005,0.7400000000000001 c0.22000000000000003,0.33000000000000007 0.43000000000000005,0.6700000000000002 0.6400000000000001,1 l0.8400000000000001,1.4 h0 a44.42,44.42 0 0 1 5.87,22.05 zm-26.9,-11.4 c-1.06,-6.34 -8.4,-11.28 -17.71,-11.28 c-8.48,0 -16.52,4.91 -17.71,11.25 a1.37,1.37 0 0 0 1.35,1.6300000000000001 h32.72 A1.37,1.37 0 0 0 494.6299992370606,117.9800451660156 z" id="svg_4"/><path class="cls-1" d="M655.1899992370605,121.95004516601563 v48.38 a1.37,1.37 0 0 1 -1.37,1.37 H628.1799992370605 a1.37,1.37 0 0 1 -1.37,-1.37 v-47 c0,-3.19 -0.18000000000000002,-6.85 -1.52,-9.8 a8.620000000000001,8.620000000000001 0 0 0 -2.41,-3.06 a9.9,9.9 0 0 0 -6.35,-1.87 c-4.94,0 -8.77,1.7000000000000002 -10,4.44 c-1.3900000000000001,3 -1.3900000000000001,7 -1.3900000000000001,10.29 v47 a1.37,1.37 0 0 1 -1.3800000000000001,1.37 H578.7999992370605 a1.37,1.37 0 0 1 -1.37,-1.37 l-0.06000000000000001,-47 c0,-3.19 -0.18000000000000002,-6.85 -1.51,-9.8 a8.64,8.64 0 0 0 -2.42,-3.06 a9.89,9.89 0 0 0 -6.34,-1.87 c-5,0 -8.78,1.7000000000000002 -10,4.44 c-1.4,3 -1.4,7 -1.4,10.29 v47 a1.37,1.37 0 0 1 -1.37,1.37 H528.7199992370605 a1.37,1.37 0 0 1 -1.37,-1.37 V87.11004516601565 a1.37,1.37 0 0 1 1.37,-1.37 h24 a1.37,1.37 0 0 1 1.3800000000000001,1.37 v2.3200000000000003 a0.6900000000000002,0.6900000000000002 0 0 0 1.07,0.5700000000000001 c19.36,-13.33 38.21,1.47 38.4,1.6300000000000001 a20,20 0 0 1 1.94,1.7000000000000002 c0.52,0.52 1,1 1.49,1.56 a1.37,1.37 0 0 0 2.08,-0.07 a26.75,26.75 0 0 1 5.26,-4.86 a26.34,26.34 0 0 1 8.21,-4 c16.22,-5.53 30.3,5.5600000000000005 30.44,5.68 a19.86,19.86 0 0 1 1.9300000000000002,1.7000000000000002 h0 C653.7099992370605,102.14004516601562 655.1899992370605,109.28004516601561 655.1899992370605,121.95004516601563 z" id="svg_5"/><path class="cls-1" d="M743.5199992370606,87.58004516601562 l-27.06,75.19 l-12.6,35.77 a1.36,1.36 0 0 1 -1.29,0.91 H675.8799992370606 a1.3800000000000001,1.3800000000000001 0 0 1 -1.31,-1.81 l10.47,-31 a1.49,1.49 0 0 0 0,-0.91 l-28.61,-78.16 a1.3800000000000001,1.3800000000000001 0 0 1 1.3,-1.84 h23.92 a1.37,1.37 0 0 1 1.29,0.9 l15.67,42.36 a1.3800000000000001,1.3800000000000001 0 0 0 2.59,0 l14.44,-42.29 a1.36,1.36 0 0 1 1.29,-0.93 h25.31 A1.3800000000000001,1.3800000000000001 0 0 1 743.5199992370606,87.58004516601562 z" id="svg_6"/><path class="cls-1" d="M70.50999923706054,37.78004516601561 l-15,26.74 a34.56,34.56 0 0 0 29.43,-1.17 l7.29,12.92 a36.47,36.47 0 0 1 -43.43,0.2 q2.43,-4.32 4.85,-8.64 L-7.629394538355427e-7,163.57004516601563 c2.7600000000000002,2.6900000000000004 10.17,9.15 20.76,9.54 c12,0.45 20.48,-7.23 23.09,-9.83 c3.59,3.25 12.59,10.47 25.24,10.83 c14.09,0.39000000000000007 24.11,-8 27.59,-11.18 c2.54,2.64 10.13,9.83 21.17,10.18 c12.31,0.4 20.79,-8 23.18,-10.48 zm-0.8800000000000001,107.58 c-9.83,-0.3400000000000001 -16.8,-6.29 -19.53,-8.92 q10.2,-19.26 20.41,-38.5 l20.37,38.55 C88.20999923706054,139.05004516601565 80.47999923706055,145.74004516601565 69.62999923706055,145.36004516601565 z" id="svg_7"/><path class="cls-1" d="M55.52999923706055,64.52004516601562 l-1.86,3.31 l1.86,-3.31 z" id="svg_8"/><path class="cls-1" d="M145.30999923706054,51.090045166015614 a19.12,19.12 0 0 1 -1.34,5.5600000000000005 c-3,6.4 -10,10.21 -18.59,10.21 a30.56,30.56 0 0 1 -3.66,-0.22000000000000003 a26.82,26.82 0 0 1 -10.1,-3.07 a18.57,18.57 0 0 1 -6.61,-8.16 a0.81,0.81 0 0 1 0.5700000000000001,-1.11 l13.77,-3 a0.8400000000000001,0.8400000000000001 0 0 1 0.8400000000000001,0.35000000000000003 a5.37,5.37 0 0 0 3.49,2.24 c2.1,0.26 3.2,-0.31000000000000005 3.74,-0.8300000000000001 a2.29,2.29 0 0 0 0.7000000000000001,-2 c-0.21000000000000002,-1.7400000000000002 -1.26,-2.55 -6.58,-5.09 l-0.07,0 c-1.06,-0.51 -2.38,-1.1400000000000001 -3.85,-1.87 c-1,-0.43000000000000005 -2,-0.91 -2.93,-1.4100000000000001 l-0.08000000000000002,0 l-0.4,-0.24000000000000002 c-4.78,-2.74 -7.57,-6.07 -8.28,-9.91 c-1,-5.49 2.5,-10.14 3.21,-11 a17.49,17.49 0 0 1 3.7,-3.14 a23.23,23.23 0 0 1 15.17,-3.11 a25.84,25.84 0 0 1 9.06,2.6900000000000004 a19,19 0 0 1 3.48,2.33 a11.84,11.84 0 0 1 3.66,6.27 a0.8,0.8 0 0 1 -0.6300000000000001,0.9400000000000001 l-13.54,2.73 a0.77,0.77 0 0 1 -0.9,-0.5 a3.42,3.42 0 0 0 -3,-2.1 a3.37,3.37 0 0 0 -3,1 a2,2 0 0 0 -0.5700000000000001,1.87 c0.26,0.9 1.19,2.34 6.24,4.4 c1,0.38000000000000006 1.92,0.7400000000000001 2.85,1.12 c1.18,0.42000000000000004 2.3200000000000003,0.8800000000000001 3.38,1.35 h0 C138.31999923706056,38.80004516601565 145.79999923706055,43.16004516601561 145.30999923706054,51.090045166015614 z" id="svg_9"/><path class="cls-1" d="M200.19999923706055,41.340045166015614 a26.68,26.68 0 1 1 -26.68,-26.31 A26.53,26.53 0 0 1 200.19999923706055,41.340045166015614 zm-15.05,0 a11.63,11.63 0 1 0 -11.63,11.47 A11.56,11.56 0 0 0 185.14999923706054,41.340045166015614 z" id="svg_10"/><path class="cls-1" d="M253.85999923706055,55.140045166015625 c-0.4,0.6200000000000001 -1,1.48 -1.29,1.9 l0,0 c-0.49000000000000005,0.6500000000000001 -1,1.28 -1.57,1.8800000000000001 l0,0.05000000000000001 l-0.8200000000000001,0.8500000000000001 l-0.13,0.13 c-0.24000000000000002,0.23 -0.48000000000000004,0.46 -0.7300000000000001,0.6800000000000002 l-0.43000000000000005,0.39000000000000007 l-0.31000000000000005,0.25 a27,27 0 0 1 -13.67,6.09 l-0.51,0.06000000000000001 l-0.6200000000000001,0.07 l-1,0.07 l-0.36000000000000004,0 c-0.4,0 -0.79,0 -1.19,0 a26.31,26.31 0 1 1 0,-52.62 c0.4,0 0.79,0 1.19,0 l0.36000000000000004,0 l1,0.07 l0.6200000000000001,0.07 l0.51,0.07 a27.07,27.07 0 0 1 13.68,6.07 l0.30000000000000004,0.26 l0.43000000000000005,0.39000000000000007 c0.25,0.22000000000000003 0.49000000000000005,0.45 0.7300000000000001,0.6800000000000002 l0.13,0.13 c0.25,0.25 0.5,0.51 0.7400000000000001,0.77 l0.12000000000000001,0.13 c0.55,0.6000000000000001 1.08,1.23 1.57,1.87 l0,0 c0.5,0.6600000000000001 1,1.35 1.4100000000000001,2.05 a0.6300000000000001,0.6300000000000001 0 0 1 -0.22000000000000003,0.8700000000000001 l-7.12,4.11 l-4.12,2.38 a0.8,0.8 0 0 1 -1.06,-0.24000000000000002 c-2.34,-3.56 -5.59,-5.52 -9.46,-5.52 a12.29,12.29 0 0 0 -9.39,4.34 a11.32,11.32 0 0 0 0,15.46 a12.29,12.29 0 0 0 9.39,4.34 c3.87,0 7.12,-2 9.46,-5.52 a0.79,0.79 0 0 1 1.06,-0.24000000000000002 l11.06,6.38 A0.81,0.81 0 0 1 253.85999923706055,55.140045166015625 z" id="svg_11"/><path class="cls-1" d="M273.54999923706055,0.80004516601565 v10.26 a0.8,0.8 0 0 1 -0.8,0.8 h-14 a0.8,0.8 0 0 1 -0.81,-0.8 V0.80004516601565 a0.8,0.8 0 0 1 0.81,-0.8 h14 A0.8,0.8 0 0 1 273.54999923706055,0.80004516601565 zm0,15.83 v48.64 a0.8,0.8 0 0 1 -0.8,0.8 h-14 a0.8,0.8 0 0 1 -0.81,-0.8 V16.630045166015634 a0.8,0.8 0 0 1 0.81,-0.8 h14 A0.8,0.8 0 0 1 273.54999923706055,16.630045166015634 z" id="svg_12"/><path class="cls-1" d="M333.15999923706056,16.600045166015605 v48.64 a0.81,0.81 0 0 1 -0.8,0.81 h-14 a0.81,0.81 0 0 1 -0.8,-0.81 v-0.7400000000000001 a0.4,0.4 0 0 0 -0.6000000000000001,-0.3400000000000001 a26.92,26.92 0 0 1 -13.24,3.47 a26.31,26.31 0 1 1 0,-52.62 a27,27 0 0 1 13.24,3.47 a0.4,0.4 0 0 0 0.6000000000000001,-0.3400000000000001 v-1.54 a0.8,0.8 0 0 1 0.8,-0.8 h14 A0.8,0.8 0 0 1 333.15999923706056,16.600045166015605 zm-15.64,24.72 c0,-6.65 -4.69,-12.07 -11.44,-12.07 a12.07,12.07 0 1 0 0,24.14 C312.79999923706055,53.390045166015625 317.5199992370606,47.97004516601561 317.5199992370606,41.32004516601563 z" id="svg_13"/><path class="cls-1" d="M355.3899992370605,0.80004516601565 v64.47 a0.8,0.8 0 0 1 -0.8,0.8 H339.73999923706054 a0.8,0.8 0 0 1 -0.8,-0.8 V0.80004516601565 a0.8,0.8 0 0 1 0.8,-0.8 h14.85 A0.8,0.8 0 0 1 355.3899992370605,0.80004516601565 z" id="svg_14"/></g></svg>