<svg id="Capa_1" data-name="Capa 1" xmlns="http://www.w3.org/2000/svg" viewBox="0 0 1366 250"><defs><style>.cls-1{fill:#353c72;}</style></defs><title>Mesa de trabajo 1 copia 2</title><path class="cls-1" d="M53.19,178.52q-11.38-8.43-12.26-24.15H71.07c.29,3.55,1.34,6.15,3.17,7.78a10.18,10.18,0,0,0,7.07,2.45,10.23,10.23,0,0,0,6.41-1.94,6.46,6.46,0,0,0,2.53-5.41,7.65,7.65,0,0,0-4.18-6.92q-4.18-2.46-13.56-5.48a121.91,121.91,0,0,1-16.08-6.42,30.81,30.81,0,0,1-10.67-9.08q-4.53-6-4.54-15.65a28.56,28.56,0,0,1,4.9-16.79,30.28,30.28,0,0,1,13.56-10.6A50.63,50.63,0,0,1,79.29,82.7Q97,82.7,107.62,91t11.32,23.29H88.23q-.15-4.61-2.81-6.92a10.11,10.11,0,0,0-6.85-2.31,7.31,7.31,0,0,0-5.19,1.88,6.89,6.89,0,0,0-2,5.33,6.59,6.59,0,0,0,2.23,5,20.62,20.62,0,0,0,5.55,3.6q3.31,1.51,9.81,3.82a122,122,0,0,1,15.93,6.56,32.63,32.63,0,0,1,10.82,9.09q4.53,5.83,4.54,14.78a30,30,0,0,1-4.54,16.29,31.18,31.18,0,0,1-13.12,11.39Q94,187,82.32,187,64.57,187,53.19,178.52Z"/><path class="cls-1" d="M155.85,180.25a49.94,49.94,0,0,1-19-18.6,52.09,52.09,0,0,1-7-26.89,52.1,52.1,0,0,1,7-26.9,49.38,49.38,0,0,1,19-18.52,55.33,55.33,0,0,1,52.56,0,49.08,49.08,0,0,1,18.82,18.52,52.54,52.54,0,0,1,6.92,26.9,52.53,52.53,0,0,1-6.92,26.89,49.48,49.48,0,0,1-18.89,18.6,54.75,54.75,0,0,1-52.49,0Zm43.33-26.6q6.27-7.07,6.28-18.89,0-12.12-6.28-19.11t-17.08-7q-11,0-17.16,7t-6.2,19.11q0,12,6.2,19t17.16,7Q192.92,160.71,199.18,153.65Z"/><path class="cls-1" d="M249.65,108.15a45.09,45.09,0,0,1,17.8-18.31Q279,83.29,294,83.28q19,0,32,10.17t16.72,27.61H312.3a20.39,20.39,0,0,0-7.57-8.8,20.6,20.6,0,0,0-11.18-3q-9.8,0-15.64,7t-5.84,18.67q0,11.82,5.84,18.82t15.64,7a19.77,19.77,0,0,0,18.75-11.82h30.42Q339,166.34,326,176.5t-32,10.16q-15,0-26.54-6.56a45,45,0,0,1-17.8-18.31q-6.27-11.74-6.27-26.89A56,56,0,0,1,249.65,108.15Z"/><path class="cls-1" d="M384.39,84.29V185.94H356.13V84.29Z"/><path class="cls-1" d="M464.85,169.36H428.8l-5.48,16.58h-29.7L430.68,84.29h32.59l36.91,101.65H470.33Zm-7.06-21.63-11-32.87L436,147.73Z"/><path class="cls-1" d="M537.67,164.32h31.57v21.62H509.41V84.29h28.26Z"/><path class="cls-1" d="M672.05,169.36H636l-5.48,16.58h-29.7L637.88,84.29h32.59l36.91,101.65H677.53ZM665,147.73l-11-32.87-10.82,32.87Z"/><path class="cls-1" d="M719.42,108.15a45.09,45.09,0,0,1,17.8-18.31q11.53-6.56,26.54-6.56,19,0,32,10.17t16.73,27.61H782.07a20.39,20.39,0,0,0-7.57-8.8,20.6,20.6,0,0,0-11.18-3q-9.8,0-15.64,7t-5.84,18.67q0,11.82,5.84,18.82t15.64,7a19.77,19.77,0,0,0,18.75-11.82h30.42q-3.75,17.45-16.73,27.61t-32,10.16q-15,0-26.54-6.56a45,45,0,0,1-17.8-18.31q-6.28-11.74-6.28-26.89A55.84,55.84,0,0,1,719.42,108.15Z"/><path class="cls-1" d="M890.21,169.36H854.16l-5.48,16.58H819L856,84.29h32.58l36.92,101.65H895.69Zm-7.06-21.63-11-32.87-10.82,32.87Z"/><path class="cls-1" d="M1003,90.71a45.1,45.1,0,0,1,18.53,18,52.93,52.93,0,0,1,6.49,26.38,52.09,52.09,0,0,1-6.57,26.25,46.42,46.42,0,0,1-18.6,18.09q-12,6.57-27.9,6.56H934.76V84.29H975Q991,84.29,1003,90.71Zm-10.75,63.51q7.07-6.78,7.07-19.18t-7.07-19.39q-7.06-6.84-19.46-6.85H963V161h9.8Q985.24,161,992.29,154.22Z"/><path class="cls-1" d="M1069,106.93v16.58h32.45V145H1069v18.32h36.77v22.63h-65V84.29h65v22.64Z"/><path class="cls-1" d="M1238.43,84.29V185.94h-28.27V129.85L1191,185.94h-23.65L1148,129.42v56.52h-28.26V84.29h34.17l25.52,66,25-66Z"/><path class="cls-1" d="M1347,84.29l-35.76,69.36v32.29h-28.4V153.65l-35.76-69.36h32.3l17.87,39.22,17.88-39.22Z"/></svg>