<svg id="Calendar" xmlns="http://www.w3.org/2000/svg" width="16" height="16" viewBox="0 0 16 16">
  <path id="calendar-2" data-name="calendar"
    d="M11.854.75a.75.75,0,0,0-1.5,0v.522H5.642V.75a.75.75,0,0,0-1.5,0v.522H2.361A2.294,2.294,0,0,0,0,3.491V13.778A2.294,2.294,0,0,0,2.361,16H13.635A2.294,2.294,0,0,0,16,13.778V3.491a2.294,2.294,0,0,0-2.361-2.22H11.854ZM4.142,3.71V2.772H2.361a.8.8,0,0,0-.861.72V5.919h13V3.491a.8.8,0,0,0-.861-.72H11.854V3.71a.75.75,0,0,1-1.5,0V2.772H5.642V3.71a.75.75,0,0,1-1.5,0ZM14.5,7.419H1.5v6.359a.8.8,0,0,0,.861.72H13.635a.8.8,0,0,0,.861-.72Z"
    fill="#3b3b3b" fill-rule="evenodd" />
</svg>