<svg id="Contacts" xmlns="http://www.w3.org/2000/svg" width="13.1" height="16" viewBox="0 0 13.1 16">
  <defs>
    <style>
      .cls-1 {
        fill: #3b3b3b;
        fill-rule: evenodd;
      }
    </style>
  </defs>
  <path id="Contacts-2" data-name="Contacts" class="cls-1" d="M4.811,3.811A1.062,1.062,0,0,1,5.563,3.5H14.6v9.375H5.563a2.562,2.562,0,0,0-1.062.231V4.563A1.062,1.062,0,0,1,4.811,3.811ZM4.5,15.438A1.063,1.063,0,0,0,5.563,16.5H14.6V14.375H5.563A1.063,1.063,0,0,0,4.5,15.438Zm11.6-1.812V2.75A.75.75,0,0,0,15.35,2H5.563A2.563,2.563,0,0,0,3,4.563V15.438A2.562,2.562,0,0,0,5.563,18H15.35a.75.75,0,0,0,.75-.75Z" transform="translate(-3 -2)"/>
</svg>
