<svg id="Delete" xmlns="http://www.w3.org/2000/svg" width="14.55" height="16" viewBox="0 0 14.55 16">
  <path id="Delete-2" data-name="Delete"
    d="M8.05,3.705A.7.7,0,0,1,8.545,3.5h2.9a.7.7,0,0,1,.7.7v.7h-4.3V4.2A.7.7,0,0,1,8.05,3.705ZM6.345,4.9V4.2A2.2,2.2,0,0,1,8.545,2h2.9a2.2,2.2,0,0,1,2.2,2.2v.7H16.52a.75.75,0,0,1,0,1.5h-.7v9.4a2.2,2.2,0,0,1-2.2,2.2H6.37a2.2,2.2,0,0,1-2.2-2.2V6.4h-.7a.75.75,0,0,1,0-1.5ZM5.67,15.8V6.4h8.65v9.4a.7.7,0,0,1-.7.7H6.37a.7.7,0,0,1-.7-.7ZM8.545,8.525a.75.75,0,0,1,.75.75v4.35a.75.75,0,1,1-1.5,0V9.275A.75.75,0,0,1,8.545,8.525Zm3.65.75a.75.75,0,0,0-1.5,0v4.35a.75.75,0,0,0,1.5,0Z"
    transform="translate(-2.72 -2)" fill="#fafafa" fill-rule="evenodd" />
</svg>