<svg id="Dollar_Fill_" data-name="Dollar [Fill]" xmlns="http://www.w3.org/2000/svg" width="8.29" height="16" viewBox="0 0 8.29 16">
  <defs>
    <style>
      .cls-1 {
        fill: #3b3b3b;
      }
    </style>
  </defs>
  <path id="Dollar_Fill_2" data-name="Dollar [Fill]" class="cls-1" d="M12.37,9.268a19.266,19.266,0,0,0-1.956-.886,4.393,4.393,0,0,1-1.074-.6.934.934,0,0,1,.231-1.662,1.886,1.886,0,0,1,.658-.135,4.991,4.991,0,0,1,2.472.489c.39.188.519.129.651-.278.139-.43.254-.866.383-1.3a.454.454,0,0,0-.294-.6,6.283,6.283,0,0,0-1.56-.466c-.707-.109-.707-.112-.71-.823,0-1,0-1-1.008-1-.145,0-.291,0-.436,0-.469.013-.549.1-.562.568-.007.211,0,.423,0,.638,0,.628-.007.618-.608.836A3.352,3.352,0,0,0,6.105,7.15a3.183,3.183,0,0,0,1.8,3.043,19.912,19.912,0,0,0,2.25,1.011,3.345,3.345,0,0,1,.819.482,1.124,1.124,0,0,1-.268,1.969,2.7,2.7,0,0,1-1.444.188,6.445,6.445,0,0,1-2.2-.658c-.406-.212-.525-.155-.664.284-.119.38-.225.763-.33,1.147-.142.516-.089.638.4.879a7.026,7.026,0,0,0,1.983.568c.535.086.552.109.558.664,0,.251,0,.506.007.757A.449.449,0,0,0,9.5,18c.37.007.744.007,1.114,0a.424.424,0,0,0,.459-.479c0-.344.017-.691,0-1.034a.546.546,0,0,1,.473-.621A3.735,3.735,0,0,0,13.5,14.608,3.512,3.512,0,0,0,12.37,9.268Z" transform="translate(-6 -2)"/>
</svg>
