<svg id="Mail" xmlns="http://www.w3.org/2000/svg" width="16.012" height="13.1" viewBox="0 0 16.012 13.1">
  <defs>
    <style>
      .cls-1 {
        fill: #3b3b3b;
        fill-rule: evenodd;
      }
    </style>
  </defs>
  <path id="Mail-2" data-name="Mail" class="cls-1" d="M3.585,5.369A.7.7,0,0,1,4.2,5H15.8a.7.7,0,0,1,.615.369L10,9.86ZM2,5.687Q2,5.7,2,5.709V14.4a2.2,2.2,0,0,0,2.2,2.2H15.8A2.2,2.2,0,0,0,18,14.4q0-1.451.006-2.9c.006-1.933.012-3.867-.006-5.8,0,0,0-.006,0-.009V5.68A2.219,2.219,0,0,0,15.8,3.5H4.2A2.2,2.2,0,0,0,2,5.687ZM16.5,7.141V14.4a.7.7,0,0,1-.7.7H4.2a.7.7,0,0,1-.7-.7V7.14l6.07,4.249a.75.75,0,0,0,.86,0Z" transform="translate(-2 -3.5)"/>
</svg>
