<svg id="Show" xmlns="http://www.w3.org/2000/svg" width="16" height="12" viewBox="0 0 16 12">
  <defs>
    <style>
      .cls-1 {
        fill: #3b3b3b;
        fill-rule: evenodd;
      }
    </style>
  </defs>
  <path id="Show-2" data-name="Show" class="cls-1" d="M3.864,10.415c-.1-.16-.189-.3-.257-.415.068-.115.154-.256.257-.415a12.178,12.178,0,0,1,1.328-1.7A6.736,6.736,0,0,1,10,5.494a6.736,6.736,0,0,1,4.808,2.39,12.187,12.187,0,0,1,1.328,1.7c.1.16.189.3.257.415-.068.115-.154.256-.257.415a12.192,12.192,0,0,1-1.328,1.7A6.736,6.736,0,0,1,10,14.506a6.736,6.736,0,0,1-4.808-2.39A12.182,12.182,0,0,1,3.864,10.415Zm14.057-.75L17.25,10l.671.335h0v0l0,0-.008.015-.027.052c-.023.044-.057.106-.1.184-.088.155-.217.374-.385.634A13.673,13.673,0,0,1,15.9,13.137,8.223,8.223,0,0,1,10,16a8.222,8.222,0,0,1-5.9-2.863A13.668,13.668,0,0,1,2.6,11.226c-.169-.26-.3-.479-.385-.634-.044-.078-.078-.14-.1-.184l-.027-.052-.008-.015,0,0v0h0L2.75,10l-.671-.335h0v0l0,0,.008-.015.027-.052c.023-.044.057-.106.1-.184.088-.155.217-.374.385-.634A13.672,13.672,0,0,1,4.1,6.863,8.223,8.223,0,0,1,10,4a8.223,8.223,0,0,1,5.9,2.863A13.678,13.678,0,0,1,17.4,8.774c.169.26.3.479.385.634.044.078.077.14.1.184l.027.052.008.015,0,0v0ZM17.25,10l.671-.334a.744.744,0,0,1,0,.668ZM2.079,9.666,2.75,10l-.671.334A.745.745,0,0,1,2.079,9.666ZM8.773,10A1.227,1.227,0,1,1,10,11.223,1.225,1.225,0,0,1,8.773,10ZM10,7.283A2.717,2.717,0,1,0,12.727,10,2.722,2.722,0,0,0,10,7.283Z" transform="translate(-2 -4)"/>
</svg>
