<svg id="Smartphone" xmlns="http://www.w3.org/2000/svg" width="10.326" height="16" viewBox="0 0 10.326 16">
  <defs>
    <style>
      .cls-1 {
        fill: #3b3b3b;
        fill-rule: evenodd;
      }
    </style>
  </defs>
  <path id="Smartphone-2" data-name="Smartphone" class="cls-1" d="M7.011,3.5a.511.511,0,0,0-.511.511V15.989a.511.511,0,0,0,.511.511h6.3a.511.511,0,0,0,.511-.511V4.011a.511.511,0,0,0-.511-.511h-.8l-.187.373a.75.75,0,0,1-.671.415H8.508a.75.75,0,0,1-.671-.415L7.651,3.5ZM5,4.011A2.011,2.011,0,0,1,7.011,2h6.3a2.011,2.011,0,0,1,2.011,2.011V15.989A2.011,2.011,0,0,1,13.315,18h-6.3A2.011,2.011,0,0,1,5,15.989Z" transform="translate(-5 -2)"/>
</svg>
