<svg id="Text" xmlns="http://www.w3.org/2000/svg" width="13.1" height="16" viewBox="0 0 13.1 16">
  <defs>
    <style>
      .cls-1 {
        fill: #3b3b3b;
        fill-rule: evenodd;
      }
    </style>
  </defs>
  <path id="Text-2" data-name="Text" class="cls-1" d="M5.2,2H11a.75.75,0,0,1,.53.22l4.35,4.35a.75.75,0,0,1,.22.53v8.7A2.222,2.222,0,0,1,13.9,18H5.2A2.222,2.222,0,0,1,3,15.8V4.2A2.222,2.222,0,0,1,5.2,2Zm0,1.5a.721.721,0,0,0-.7.7V15.8a.721.721,0,0,0,.7.7h8.7a.721.721,0,0,0,.7-.7V7.85H11a.75.75,0,0,1-.75-.75V3.5Zm6.55,1.061L13.539,6.35H11.75ZM5.9,7.825a.75.75,0,0,1,.75-.75H8.1a.75.75,0,0,1,0,1.5H6.65A.75.75,0,0,1,5.9,7.825Zm.75,2.15a.75.75,0,1,0,0,1.5h5.8a.75.75,0,1,0,0-1.5Zm0,2.9a.75.75,0,0,0,0,1.5h5.8a.75.75,0,0,0,0-1.5Z" transform="translate(-3 -2)"/>
</svg>
