<svg id="Travel" xmlns="http://www.w3.org/2000/svg" width="15.999" height="14.501" viewBox="0 0 15.999 14.501">
  <defs>
    <style>
      .cls-1 {
        fill: #3b3b3b;
        fill-rule: evenodd;
      }
    </style>
  </defs>
  <path id="Travel-2" data-name="Travel" class="cls-1" d="M8.55,2.75a2.2,2.2,0,0,0-2.2,2.195v.694H4.2A2.2,2.2,0,0,0,2,7.833v7.223A2.2,2.2,0,0,0,4.2,17.25H15.8A2.2,2.2,0,0,0,18,15.056V7.833a2.2,2.2,0,0,0-2.2-2.195h-2.15V4.945a2.2,2.2,0,0,0-2.2-2.195Zm3.6,2.889V4.945a.692.692,0,0,0-.2-.49.7.7,0,0,0-.5-.2H8.55a.7.7,0,0,0-.5.2.692.692,0,0,0-.2.49v.694Zm-4.3,1.5h4.3V15.75H7.85Zm-1.5,0H4.2a.7.7,0,0,0-.7.695v7.223a.7.7,0,0,0,.7.695H6.35Zm7.3,8.612V7.139H15.8a.7.7,0,0,1,.7.695v7.223a.7.7,0,0,1-.7.695Z" transform="translate(-2 -2.75)"/>
</svg>
